<?xml version="1.0" encoding="UTF-8"?>
<!DOCTYPE svg PUBLIC "-//W3C//DTD SVG 1.1//EN" "http://www.w3.org/Graphics/SVG/1.1/DTD/svg11.dtd">
<!-- Creator: CorelDRAW X6 -->
<svg xmlns="http://www.w3.org/2000/svg" xml:space="preserve" width="209.343mm" height="209.843mm" version="1.1" style="shape-rendering:geometricPrecision; text-rendering:geometricPrecision; image-rendering:optimizeQuality; fill-rule:evenodd; clip-rule:evenodd"
viewBox="0 0 20934 20984"
 xmlns:xlink="http://www.w3.org/1999/xlink">
 <defs>
  <style type="text/css">
   <![CDATA[
    .fil0 {fill:#FF6A5A}
    .fil1 {fill:#444160;fill-rule:nonzero}
   ]]>
  </style>
 </defs>
 <g id="Слой_x0020_1">
  <metadata id="CorelCorpID_0Corel-Layer"/>
  <path class="fil0" d="M10458 16616l-37 -36c-4,-4 -13,-13 -18,-18l-1037 -1470c-1018,-1575 -2059,-3362 -2661,-5209 -496,-1524 -527,-2932 302,-4167 636,-947 1748,-1847 3415,-1864 1678,-18 2816,903 3440,1803 836,1206 849,2703 340,4222 -429,1278 -1026,2502 -1651,3571 -433,742 -1515,2509 -2094,3167zm0 1287c443,-406 2232,-3218 2483,-3641 1529,-2571 3503,-6272 1498,-9077 -2001,-2800 -6067,-2785 -8010,59 -990,1449 -1028,3070 -441,4899 500,1557 1243,2856 1996,4142 320,546 2152,3416 2473,3618z"/>
  <path class="fil0" d="M10282 6857c1486,-205 1791,1969 362,2210 -1526,257 -1783,-2014 -362,-2210zm-97 -735c-568,111 -923,326 -1199,689 -260,342 -479,876 -375,1455 161,902 1014,1739 2143,1543 1618,-280 2126,-2311 856,-3312 -335,-264 -872,-483 -1426,-375z"/>
  <path class="fil1" d="M10447 33c2890,0 5507,1172 7401,3066 1894,1894 3066,4511 3066,7401 0,2890 -1172,5507 -3066,7401 -1894,1894 -4511,3066 -7401,3066 -2890,0 -5507,-1172 -7401,-3066 -1894,-1894 -3066,-4511 -3066,-7401 0,-2890 1172,-5507 3066,-7401 1894,-1894 4511,-3066 7401,-3066zm6694 3773c-1713,-1713 -4080,-2773 -6694,-2773 -2614,0 -4981,1060 -6694,2773 -1713,1713 -2773,4080 -2773,6694 0,2614 1060,4981 2773,6694 1713,1713 4080,2773 6694,2773 2614,0 4981,-1060 6694,-2773 1713,-1713 2773,-4080 2773,-6694 0,-2614 -1060,-4981 -2773,-6694z"/>
 </g>
</svg>
