<?xml version="1.0" encoding="UTF-8"?>
<!DOCTYPE svg PUBLIC "-//W3C//DTD SVG 1.1//EN" "http://www.w3.org/Graphics/SVG/1.1/DTD/svg11.dtd">
<!-- Creator: CorelDRAW X6 -->
<svg xmlns="http://www.w3.org/2000/svg" xml:space="preserve" width="209.343mm" height="209.843mm" version="1.1" style="shape-rendering:geometricPrecision; text-rendering:geometricPrecision; image-rendering:optimizeQuality; fill-rule:evenodd; clip-rule:evenodd"
viewBox="0 0 20934 20984"
 xmlns:xlink="http://www.w3.org/1999/xlink">
 <defs>
  <style type="text/css">
   <![CDATA[
    .str1 {stroke:#FF6A5A;stroke-width:400}
    .str0 {stroke:#FF6A5A;stroke-width:700}
    .str2 {stroke:#444160;stroke-width:1000}
    .fil0 {fill:none}
    .fil1 {fill:#FF6A5A}
    .fil2 {fill:white}
   ]]>
  </style>
 </defs>
 <g id="Слой_x0020_1">
  <metadata id="CorelCorpID_0Corel-Layer"/>
  <polygon class="fil0 str0" points="5164,15475 7050,15476 7123,10470 14045,10457 14035,15475 15935,15475 15935,8224 10629,5165 5164,8224 "/>
  <rect class="fil0 str1" x="7402" y="14400" width="1712" height="1232"/>
  <rect class="fil0 str1" x="9184" y="14400" width="1712" height="1232"/>
  <rect class="fil0 str1" x="7308" y="13151" width="1712" height="1232"/>
  <rect class="fil0 str1" x="9135" y="13151" width="1712" height="1232"/>
  <rect class="fil0 str1" x="7846" y="11803" width="1712" height="1232"/>
  <rect class="fil0 str1" x="12060" y="14400" width="1712" height="1232"/>
  <circle class="fil0 str2" cx="10464" cy="10462" r="9967"/>
  <rect class="fil0 str0" x="-57203" y="47227" width="5913" height="5569"/>
  <circle class="fil0 str2" cx="-51196" cy="47843" r="9967"/>
  <rect class="fil0 str0" x="-54845" y="47264" width="1212" height="1706"/>
  <rect class="fil0 str0" x="-51101" y="47227" width="5913" height="5569"/>
  <rect class="fil0 str0" x="-48743" y="47264" width="1212" height="1706"/>
  <rect class="fil0 str0" x="-54012" y="41620" width="5913" height="5569"/>
  <rect class="fil0 str0" x="-51653" y="41658" width="1212" height="1706"/>
  <path class="fil1" d="M-54608 65840c144,11 1599,0 1776,0 1477,0 2964,0 4441,0 144,0 788,22 877,-11l11 -722c0,-67 -11,-56 -189,-56l-5929 0c-311,0 -677,-11 -977,11 -22,44 -22,699 -11,777z"/>
  <path class="fil1" d="M-54608 69071c266,-22 611,-11 888,-11l5329 0c167,0 777,22 888,0l0 -766c-78,-22 -3375,-11 -3553,-11l-3109 0c-133,0 -311,-11 -444,0 -22,122 0,622 0,788z"/>
  <polygon class="fil1" points="-54608,67450 -47502,67450 -47502,66673 -54608,66673 "/>
  <path class="fil1" d="M-47125 71758c-44,22 -533,500 -533,511 -33,67 44,455 -266,866 -144,189 -344,344 -566,444 -389,167 -899,122 -1255,-133 -111,-78 -211,-167 -300,-266 -78,-100 -155,-211 -200,-333 -100,-278 -133,-622 -33,-899 56,-167 122,-322 233,-444 89,-100 155,-189 278,-255 11,-11 22,-22 33,-33 311,-222 755,-266 1133,-155 56,-44 89,-111 133,-167 0,0 11,0 11,0l89 -111c44,-67 133,-155 167,-233 -89,-67 -500,-167 -666,-167 -300,-11 -477,11 -733,89 -211,56 -378,155 -555,278l-278 244 -144 178c-477,622 -522,1554 -67,2232 11,33 22,44 33,67l67 89c0,0 11,11 11,11l67 78c33,44 67,67 100,100l222 200 266 155c67,33 89,33 155,67 433,167 966,189 1410,11 56,-22 100,-44 144,-67 22,-11 44,-22 67,-33 33,-11 11,0 44,-11 0,-11 22,-22 33,-22l122 -78c11,-11 11,-11 22,-22l155 -111c33,-22 33,-22 56,-56 56,-56 111,-100 155,-155l89 -122c11,0 11,0 11,-11l33 -56c11,0 11,0 11,0 56,-89 111,-167 144,-266 133,-311 222,-688 178,-1066 -22,-122 -56,-233 -78,-344z"/>
  <path class="fil1" d="M-49268 71914c-22,-11 -22,-22 -44,-44 -22,-33 -22,-22 -44,-44 -11,-22 -22,-33 -33,-56 -167,-200 -588,-178 -677,155 -33,111 -11,233 33,311l44 56c22,22 22,22 44,44l344 389c33,67 22,22 78,100 22,33 22,22 44,56 122,122 155,233 366,278 155,33 300,-44 389,-155l577 -699c33,-22 22,-22 44,-56 22,-22 22,-22 44,-44 22,-22 22,-22 44,-44 22,-22 11,-33 33,-56l167 -200c22,-22 33,-33 56,-44l455 -544c111,-155 100,-366 0,-489 -11,-22 -33,-33 -44,-44 -111,-111 -278,-133 -422,-67 -33,0 -44,11 -67,22 -22,22 -22,22 -44,44l-511 588c-22,33 -22,33 -44,56l-167 200c-22,33 -22,33 -44,44l-78 100c-22,33 -22,22 -44,56l-167 200c-22,22 -22,22 -44,44 -22,33 -11,11 -44,56 -11,22 0,11 -33,44l-211 -255z"/>
  <path class="fil1" d="M-54608 70681c155,11 2276,0 2531,0 122,0 777,11 844,-11l11 -766c-100,-22 -2243,0 -2531,0 -266,0 -600,11 -855,-11l0 788z"/>
  <path class="fil2" d="M-56174 75500l10215 0 0 -888c-11,33 -11,167 -78,300 -11,33 -22,44 -33,67l-89 155c-322,422 -733,355 -1177,355l-7495 0c-300,0 -577,33 -833,-100 -200,-111 -366,-278 -444,-500 -33,-89 -56,-200 -56,-311 11,-999 0,-1999 0,-2998l0 -6751c0,-355 -44,-611 133,-899 0,0 0,-11 0,-11 0,0 0,0 11,0l0 -22c11,0 22,-22 22,-22 111,-144 244,-255 411,-333 155,-56 266,-44 300,-67l-888 0 0 12024z"/>
  <path class="fil2" d="M-45959 64364l0 -888 -877 0 44 11c11,0 33,0 44,11 211,33 444,144 566,311 89,133 133,167 189,366 11,44 22,167 33,189z"/>
  <rect class="fil0 str0" x="-55735" y="63875" width="9360" height="11625"/>
  <circle class="fil0 str2" cx="-51196" cy="69733" r="9967"/>
  <circle class="fil0 str2" cx="-51196" cy="92346" r="9967"/>
  <rect class="fil0 str0" x="-55196" y="91568" width="8328" height="5520"/>
  <rect class="fil0 str0" x="-55196" y="88221" width="8328" height="3362"/>
  <rect class="fil0 str0" transform="matrix(0.00273785 -0.00566894 0.733369 0.354185 -58246.9 90011.2)" width="13229" height="4128"/>
  <rect class="fil0 str0" transform="matrix(-0.00273785 -0.00566894 -0.733369 0.354185 -44091.7 90011.2)" width="13229" height="4128"/>
  <path class="fil1" d="M-57775 117947c114,-1201 715,-2402 1430,-3288 114,-172 200,-286 372,-400 315,-315 315,-372 801,-772 2402,-1773 5833,-1744 8178,114 114,114 315,257 429,343l400 400c372,429 658,858 944,1373 229,400 801,1830 715,2345 -57,-114 -486,-286 -715,-343 -743,-172 -1487,114 -1973,629l-286 257c-114,-57 -57,-86 -172,-172 -86,-86 -86,-86 -172,-172 -886,-915 -2488,-743 -3260,315 -257,-286 -343,-429 -715,-658 -658,-343 -1601,-343 -2259,-29 -429,200 -486,372 -743,600 -172,-143 -257,-315 -543,-486 -486,-315 -1087,-400 -1687,-315 -458,57 -543,200 -743,257zm-686 515l0 801c315,458 572,172 629,-57 57,-400 143,-572 400,-743 515,-315 1344,-229 1801,86 658,486 429,886 772,944 429,57 286,-515 829,-886 772,-572 1944,-400 2431,343 229,286 143,600 143,1001l0 3403c0,343 0,715 172,972 257,343 543,343 686,429l429 0c229,-114 543,-114 772,-543 257,-543 -86,-886 -372,-715 -257,143 -29,686 -658,658 -515,-57 -400,-458 -400,-915 0,-343 -29,-3775 0,-3946 29,-229 1172,-1744 2545,-601 372,286 486,601 601,715 143,143 343,86 458,-29 200,-286 400,-743 1001,-972 686,-286 1430,-57 1716,686 86,172 114,343 286,372 229,86 315,-86 400,-200l0 -886c-114,-257 0,-1201 -743,-2717 -1144,-2345 -3603,-4032 -6262,-4089 -57,-858 114,-972 -229,-1230l-172 0c-343,229 -200,486 -229,1230 -2802,57 -5233,1916 -6291,4146 -743,1544 -629,2459 -715,2745z"/>
  <circle class="fil0 str2" cx="-51196" cy="117943" r="9967"/>
  <path class="fil0 str0" d="M-47025 137661l-409 -253c-553,-19 -859,-47 -1300,406 -572,534 -1662,2684 -2226,3465 -325,525 -806,389 -1417,334l-5238 -14c-553,-19 -306,-28 -720,120l-650 1050c264,486 759,470 1392,620 903,236 4296,883 4610,1159 -64,364 -1473,2640 -1712,2896 -689,461 -1334,-584 -2054,1231 606,456 1690,400 2332,797 525,325 1192,1464 1731,1637 1267,-1395 0,-1695 128,-2423 86,-270 1495,-2546 1734,-2801 328,122 1776,1826 2076,2254 1959,2181 1940,2734 2518,1801 614,-992 586,-686 -528,-2668 -528,-973 -998,-1909 -1526,-2882 -975,-1815 -973,-1167 269,-3304 578,-934 1295,-1701 1261,-2690 -67,-283 -147,-414 -272,-734z"/>
  <circle class="fil0 str2" cx="-51196" cy="143879" r="9967"/>
 </g>
</svg>
