<?xml version="1.0" encoding="UTF-8"?>
<!DOCTYPE svg PUBLIC "-//W3C//DTD SVG 1.1//EN" "http://www.w3.org/Graphics/SVG/1.1/DTD/svg11.dtd">
<!-- Creator: CorelDRAW X6 -->
<svg xmlns="http://www.w3.org/2000/svg" xml:space="preserve" width="209.343mm" height="209.843mm" version="1.1" style="shape-rendering:geometricPrecision; text-rendering:geometricPrecision; image-rendering:optimizeQuality; fill-rule:evenodd; clip-rule:evenodd"
viewBox="0 0 20934 20984"
 xmlns:xlink="http://www.w3.org/1999/xlink">
 <defs>
  <style type="text/css">
   <![CDATA[
    .str0 {stroke:#FF6A5A;stroke-width:700}
    .str1 {stroke:#444160;stroke-width:1000}
    .fil2 {fill:none}
    .fil0 {fill:#FF6A5A}
    .fil1 {fill:white}
   ]]>
  </style>
 </defs>
 <g id="Слой_x0020_1">
  <metadata id="CorelCorpID_0Corel-Layer"/>
  <path class="fil0" d="M7041 6568c144,11 1599,0 1776,0 1477,0 2964,0 4441,0 144,0 788,22 877,-11l11 -722c0,-67 -11,-56 -189,-56l-5929 0c-311,0 -677,-11 -977,11 -22,44 -22,699 -11,777z"/>
  <path class="fil0" d="M7041 9799c266,-22 611,-11 888,-11l5329 0c167,0 777,22 888,0l0 -766c-78,-22 -3375,-11 -3553,-11l-3109 0c-133,0 -311,-11 -444,0 -22,122 0,622 0,788z"/>
  <polygon class="fil0" points="7041,8177 14147,8177 14147,7400 7041,7400 "/>
  <path class="fil0" d="M14524 12485c-44,22 -533,500 -533,511 -33,67 44,455 -266,866 -144,189 -344,344 -566,444 -389,167 -899,122 -1255,-133 -111,-78 -211,-167 -300,-266 -78,-100 -155,-211 -200,-333 -100,-278 -133,-622 -33,-899 56,-167 122,-322 233,-444 89,-100 155,-189 278,-255 11,-11 22,-22 33,-33 311,-222 755,-266 1133,-155 56,-44 89,-111 133,-167 0,0 11,0 11,0l89 -111c44,-67 133,-155 167,-233 -89,-67 -500,-167 -666,-167 -300,-11 -477,11 -733,89 -211,56 -378,155 -555,278l-278 244 -144 178c-477,622 -522,1554 -67,2232 11,33 22,44 33,67l67 89c0,0 11,11 11,11l67 78c33,44 67,67 100,100l222 200 266 155c67,33 89,33 155,67 433,167 966,189 1410,11 56,-22 100,-44 144,-67 22,-11 44,-22 67,-33 33,-11 11,0 44,-11 0,-11 22,-22 33,-22l122 -78c11,-11 11,-11 22,-22l155 -111c33,-22 33,-22 56,-56 56,-56 111,-100 155,-155l89 -122c11,0 11,0 11,-11l33 -56c11,0 11,0 11,0 56,-89 111,-167 144,-266 133,-311 222,-688 178,-1066 -22,-122 -56,-233 -78,-344z"/>
  <path class="fil0" d="M12381 12641c-22,-11 -22,-22 -44,-44 -22,-33 -22,-22 -44,-44 -11,-22 -22,-33 -33,-56 -167,-200 -588,-178 -677,155 -33,111 -11,233 33,311l44 56c22,22 22,22 44,44l344 389c33,67 22,22 78,100 22,33 22,22 44,56 122,122 155,233 366,278 155,33 300,-44 389,-155l577 -699c33,-22 22,-22 44,-56 22,-22 22,-22 44,-44 22,-22 22,-22 44,-44 22,-22 11,-33 33,-56l167 -200c22,-22 33,-33 56,-44l455 -544c111,-155 100,-366 0,-489 -11,-22 -33,-33 -44,-44 -111,-111 -278,-133 -422,-67 -33,0 -44,11 -67,22 -22,22 -22,22 -44,44l-511 588c-22,33 -22,33 -44,56l-167 200c-22,33 -22,33 -44,44l-78 100c-22,33 -22,22 -44,56l-167 200c-22,22 -22,22 -44,44 -22,33 -11,11 -44,56 -11,22 0,11 -33,44l-211 -255z"/>
  <path class="fil0" d="M7041 11408c155,11 2276,0 2531,0 122,0 777,11 844,-11l11 -766c-100,-22 -2243,0 -2531,0 -266,0 -600,11 -855,-11l0 788z"/>
  <path class="fil1" d="M5475 16227l10215 0 0 -888c-11,33 -11,167 -78,300 -11,33 -22,44 -33,67l-89 155c-322,422 -733,355 -1177,355l-7495 0c-300,0 -577,33 -833,-100 -200,-111 -366,-278 -444,-500 -33,-89 -56,-200 -56,-311 11,-999 0,-1999 0,-2998l0 -6751c0,-355 -44,-611 133,-899 0,0 0,-11 0,-11 0,0 0,0 11,0l0 -22c11,0 22,-22 22,-22 111,-144 244,-255 411,-333 155,-56 266,-44 300,-67l-888 0 0 12025z"/>
  <path class="fil1" d="M15690 5091l0 -888 -877 0 44 11c11,0 33,0 44,11 211,33 444,144 566,311 89,133 133,167 189,366 11,44 22,167 33,189z"/>
  <rect class="fil2 str0" x="5914" y="4602" width="9360" height="11625"/>
  <circle class="fil2 str1" cx="10452" cy="10460" r="9967"/>
 </g>
</svg>
