<?xml version="1.0" encoding="UTF-8"?>
<!DOCTYPE svg PUBLIC "-//W3C//DTD SVG 1.1//EN" "http://www.w3.org/Graphics/SVG/1.1/DTD/svg11.dtd">
<!-- Creator: CorelDRAW X6 -->
<svg xmlns="http://www.w3.org/2000/svg" xml:space="preserve" width="209.343mm" height="209.843mm" version="1.1" style="shape-rendering:geometricPrecision; text-rendering:geometricPrecision; image-rendering:optimizeQuality; fill-rule:evenodd; clip-rule:evenodd"
viewBox="0 0 20934 20984"
 xmlns:xlink="http://www.w3.org/1999/xlink">
 <defs>
  <style type="text/css">
   <![CDATA[
    .str0 {stroke:#444160;stroke-width:1000}
    .fil1 {fill:none}
    .fil0 {fill:#FF6A5A}
   ]]>
  </style>
 </defs>
 <g id="Слой_x0020_1">
  <metadata id="CorelCorpID_0Corel-Layer"/>
  <path class="fil0" d="M3895 10532c114,-1201 715,-2402 1430,-3288 114,-172 200,-286 372,-400 315,-315 315,-372 801,-772 2402,-1773 5833,-1744 8178,114 114,114 315,257 429,343l400 400c372,429 658,858 944,1373 229,400 801,1830 715,2345 -57,-114 -486,-286 -715,-343 -743,-172 -1487,114 -1973,629l-286 257c-114,-57 -57,-86 -172,-172 -86,-86 -86,-86 -172,-172 -886,-915 -2488,-743 -3260,315 -257,-286 -343,-429 -715,-658 -658,-343 -1601,-343 -2259,-29 -429,200 -486,372 -743,600 -172,-143 -257,-315 -543,-486 -486,-315 -1087,-400 -1687,-315 -458,57 -543,200 -743,257zm-686 515l0 801c315,458 572,172 629,-57 57,-400 143,-572 400,-743 515,-315 1344,-229 1801,86 658,486 429,886 772,944 429,57 286,-515 829,-886 772,-572 1944,-400 2431,343 229,286 143,600 143,1001l0 3403c0,343 0,715 172,972 257,343 543,343 686,429l429 0c229,-114 543,-114 772,-543 257,-543 -86,-886 -372,-715 -257,143 -29,686 -658,658 -515,-57 -400,-458 -400,-915 0,-343 -29,-3775 0,-3946 29,-229 1172,-1744 2545,-601 372,286 486,601 601,715 143,143 343,86 458,-29 200,-286 400,-743 1001,-972 686,-286 1430,-57 1716,686 86,172 114,343 286,372 229,86 315,-86 400,-200l0 -886c-114,-257 0,-1201 -743,-2717 -1144,-2345 -3603,-4032 -6262,-4089 -57,-858 114,-972 -229,-1230l-172 0c-343,229 -200,486 -229,1230 -2802,57 -5233,1916 -6291,4146 -743,1544 -629,2459 -715,2745z"/>
  <circle class="fil1 str0" cx="10473" cy="10528" r="9967"/>
 </g>
</svg>
