<?xml version="1.0" encoding="UTF-8"?>
<!DOCTYPE svg PUBLIC "-//W3C//DTD SVG 1.1//EN" "http://www.w3.org/Graphics/SVG/1.1/DTD/svg11.dtd">
<!-- Creator: CorelDRAW X6 -->
<svg xmlns="http://www.w3.org/2000/svg" xml:space="preserve" width="209.343mm" height="209.843mm" version="1.1" style="shape-rendering:geometricPrecision; text-rendering:geometricPrecision; image-rendering:optimizeQuality; fill-rule:evenodd; clip-rule:evenodd"
viewBox="0 0 20934 20984"
 xmlns:xlink="http://www.w3.org/1999/xlink">
 <defs>
  <style type="text/css">
   <![CDATA[
    .str0 {stroke:#FF6A5A;stroke-width:700}
    .str1 {stroke:#444160;stroke-width:1000}
    .fil0 {fill:none}
   ]]>
  </style>
 </defs>
 <g id="Слой_x0020_1">
  <metadata id="CorelCorpID_0Corel-Layer"/>
  <path class="fil0 str0" d="M14661 4239l-409 -253c-553,-19 -859,-47 -1300,406 -572,534 -1662,2684 -2226,3465 -325,525 -806,389 -1417,334l-5238 -14c-553,-19 -306,-28 -720,120l-650 1050c264,486 759,470 1392,620 903,236 4296,883 4610,1159 -64,364 -1473,2640 -1712,2896 -689,461 -1334,-584 -2054,1231 606,456 1690,400 2332,797 525,325 1192,1464 1731,1637 1267,-1395 0,-1695 128,-2423 86,-270 1495,-2546 1734,-2801 328,122 1776,1826 2076,2254 1959,2181 1940,2734 2518,1801 614,-992 586,-686 -528,-2668 -528,-973 -998,-1909 -1526,-2882 -975,-1815 -973,-1167 269,-3304 578,-934 1295,-1701 1261,-2690 -67,-283 -147,-414 -272,-734z"/>
  <circle class="fil0 str1" cx="10490" cy="10457" r="9967"/>
 </g>
</svg>
