<?xml version="1.0" encoding="UTF-8"?>
<!DOCTYPE svg PUBLIC "-//W3C//DTD SVG 1.1//EN" "http://www.w3.org/Graphics/SVG/1.1/DTD/svg11.dtd">
<!-- Creator: CorelDRAW X6 -->
<svg xmlns="http://www.w3.org/2000/svg" xml:space="preserve" width="420mm" height="594mm" version="1.1" style="shape-rendering:geometricPrecision; text-rendering:geometricPrecision; image-rendering:optimizeQuality; fill-rule:evenodd; clip-rule:evenodd"
viewBox="0 0 42000 59400"
 xmlns:xlink="http://www.w3.org/1999/xlink">
 <defs>
  <style type="text/css">
   <![CDATA[
    .fil0 {fill:#FF6A5A}
    .fil3 {fill:white}
    .fil1 {fill:#444160;fill-rule:nonzero}
    .fil2 {fill:#FF6A5A;fill-rule:nonzero}
   ]]>
  </style>
 </defs>
 <g id="Слой_x0020_1">
  <metadata id="CorelCorpID_0Corel-Layer"/>
  <path class="fil0" d="M5649 24603l-13 -13c-1,-1 -5,-5 -6,-6l-369 -523c-362,-561 -733,-1197 -947,-1854 -177,-543 -188,-1044 108,-1483 226,-337 622,-657 1216,-664 597,-6 1002,321 1225,642 298,429 302,962 121,1503 -153,455 -365,891 -588,1271 -154,264 -539,893 -746,1127zm0 458c158,-145 794,-1145 884,-1296 544,-915 1247,-2233 533,-3231 -712,-997 -2160,-992 -2851,21 -352,516 -366,1093 -157,1744 178,554 443,1017 711,1475 114,194 766,1216 880,1288z"/>
  <path class="fil0" d="M5586 21129c529,-73 638,701 129,787 -543,92 -635,-717 -129,-787zm-35 -262c-202,39 -329,116 -427,245 -93,122 -170,312 -134,518 57,321 361,619 763,549 576,-100 757,-823 305,-1179 -119,-94 -311,-172 -507,-134z"/>
  <path class="fil1" d="M5645 18700c1029,0 1960,417 2635,1091 674,674 1091,1606 1091,2635 0,1029 -417,1960 -1091,2635 -674,674 -1606,1091 -2635,1091 -1029,0 -1960,-417 -2635,-1091 -674,-674 -1091,-1606 -1091,-2635 0,-1029 417,-1960 1091,-2635 674,-674 1606,-1091 2635,-1091zm2383 1343c-610,-610 -1452,-987 -2383,-987 -931,0 -1773,377 -2383,987 -610,610 -987,1452 -987,2383 0,931 377,1773 987,2383 610,610 1452,987 2383,987 931,0 1773,-377 2383,-987 610,-610 987,-1452 987,-2383 0,-931 -377,-1773 -987,-2383z"/>
  <path class="fil2" d="M3764 28165l3918 0 125 0 0 125 0 1265 0 125 -125 0 -3918 0 -125 0 0 -125 0 -1265 0 -125 125 0zm3793 249l-3669 0 0 1015 3669 0 0 -1015z"/>
  <path class="fil2" d="M3985 29429l3515 0 125 0 0 125 0 2366 0 125 -125 0 -3515 0 -125 0 0 -125 0 -2366 0 -125 125 0zm3390 249l-3265 0 0 2117 3265 0 0 -2117z"/>
  <path class="fil2" d="M4872 29737l1810 0 125 0 0 125 0 296 0 125 -125 0 -1810 0 -125 0 0 -125 0 -296 0 -125 125 0zm1686 249l-1561 0 0 47 1561 0 0 -47z"/>
  <path class="fil1" d="M5649 26284c1029,0 1960,417 2635,1091 674,674 1091,1606 1091,2635 0,1029 -417,1960 -1091,2635 -674,674 -1606,1091 -2635,1091 -1029,0 -1960,-417 -2635,-1091 -674,-674 -1091,-1606 -1091,-2635 0,-1029 417,-1960 1091,-2635 674,-674 1606,-1091 2635,-1091zm2383 1343c-610,-610 -1452,-987 -2383,-987 -931,0 -1773,377 -2383,987 -610,610 -987,1452 -987,2383 0,931 377,1773 987,2383 610,610 1452,987 2383,987 931,0 1773,-377 2383,-987 610,-610 987,-1452 987,-2383 0,-931 -377,-1773 -987,-2383z"/>
  <path class="fil2" d="M23613 8218l424 0 24 -1659 2 -122 122 0 2464 -5 124 0 0 124 -3 1662 428 0 0 -2386 -1765 -1018 -1820 1019 0 2384zm547 248l-671 0 -125 0 0 -124 0 -2581 0 -73 64 -36 1945 -1089 61 -34 61 35 1889 1089 63 36 0 71 0 2581 0 124 -125 0 -676 0 -124 0 0 -124 3 -1662 -2217 4 -24 1659 -2 123 -122 0z"/>
  <path class="fil2" d="M24356 8327l467 0 0 -296 -467 0 0 296zm538 142l-609 0 -71 0 0 -71 0 -439 0 -71 71 0 609 0 71 0 0 71 0 439 0 71 -71 0z"/>
  <path class="fil2" d="M24990 8327l467 0 0 -296 -467 0 0 296zm538 142l-609 0 -71 0 0 -71 0 -439 0 -71 71 0 609 0 71 0 0 71 0 439 0 71 -71 0z"/>
  <path class="fil2" d="M24322 7883l467 0 0 -296 -467 0 0 296zm538 142l-609 0 -71 0 0 -71 0 -439 0 -71 71 0 609 0 71 0 0 71 0 439 0 71 -71 0z"/>
  <path class="fil2" d="M24973 7883l467 0 0 -296 -467 0 0 296zm538 142l-609 0 -71 0 0 -71 0 -439 0 -71 71 0 609 0 71 0 0 71 0 439 0 71 -71 0z"/>
  <path class="fil2" d="M24514 7403l467 0 0 -296 -467 0 0 296zm538 142l-609 0 -71 0 0 -71 0 -439 0 -71 71 0 609 0 71 0 0 71 0 439 0 71 -71 0z"/>
  <path class="fil2" d="M26014 8327l467 0 0 -296 -467 0 0 296zm538 142l-609 0 -71 0 0 -71 0 -439 0 -71 71 0 609 0 71 0 0 71 0 439 0 71 -71 0z"/>
  <path class="fil1" d="M25374 2832c1029,0 1960,417 2635,1091 674,674 1091,1606 1091,2635 0,1029 -417,1960 -1091,2635 -674,674 -1606,1091 -2635,1091 -1029,0 -1960,-417 -2635,-1091 -674,-674 -1091,-1606 -1091,-2635 0,-1029 417,-1960 1091,-2635 674,-674 1606,-1091 2635,-1091zm2383 1343c-610,-610 -1452,-987 -2383,-987 -931,0 -1773,377 -2383,987 -610,610 -987,1452 -987,2383 0,931 377,1773 987,2383 610,610 1452,987 2383,987 931,0 1773,-377 2383,-987 610,-610 987,-1452 987,-2383 0,-931 -377,-1773 -987,-2383z"/>
  <path class="fil2" d="M23236 14806l2105 0 125 0 0 125 0 1983 0 125 -125 0 -2105 0 -125 0 0 -125 0 -1983 0 -125 125 0zm1980 249l-1856 0 0 1733 1856 0 0 -1733z"/>
  <path class="fil1" d="M25374 11424c1029,0 1960,417 2635,1091 674,674 1091,1606 1091,2635 0,1029 -417,1960 -1091,2635 -674,674 -1606,1091 -2635,1091 -1029,0 -1960,-417 -2635,-1091 -674,-674 -1091,-1606 -1091,-2635 0,-1029 417,-1960 1091,-2635 674,-674 1606,-1091 2635,-1091zm2383 1343c-610,-610 -1452,-987 -2383,-987 -931,0 -1773,377 -2383,987 -610,610 -987,1452 -987,2383 0,931 377,1773 987,2383 610,610 1452,987 2383,987 931,0 1773,-377 2383,-987 610,-610 987,-1452 987,-2383 0,-931 -377,-1773 -987,-2383z"/>
  <path class="fil2" d="M24076 14819l432 0 125 0 0 125 0 607 0 125 -125 0 -432 0 -125 0 0 -125 0 -607 0 -125 125 0zm307 249l-182 0 0 358 182 0 0 -358z"/>
  <path class="fil2" d="M25408 14806l2105 0 125 0 0 125 0 1983 0 125 -125 0 -2105 0 -125 0 0 -125 0 -1983 0 -125 125 0zm1980 249l-1856 0 0 1733 1856 0 0 -1733z"/>
  <path class="fil2" d="M26248 14819l432 0 125 0 0 125 0 607 0 125 -125 0 -432 0 -125 0 0 -125 0 -607 0 -125 125 0zm307 249l-182 0 0 358 182 0 0 -358z"/>
  <path class="fil2" d="M24372 12810l2105 0 125 0 0 125 0 1983 0 125 -125 0 -2105 0 -125 0 0 -125 0 -1983 0 -125 125 0zm1980 249l-1856 0 0 1733 1856 0 0 -1733z"/>
  <path class="fil2" d="M25212 12824l432 0 125 0 0 125 0 607 0 125 -125 0 -432 0 -125 0 0 -125 0 -607 0 -125 125 0zm307 249l-182 0 0 358 182 0 0 -358z"/>
  <path class="fil0" d="M24160 21556c51,4 569,0 632,0 526,0 1055,0 1581,0 51,0 281,8 312,-4l4 -257c0,-24 -4,-20 -67,-20l-2111 0c-111,0 -241,-4 -348,4 -8,16 -8,249 -4,277z"/>
  <path class="fil0" d="M24160 22706c95,-8 217,-4 316,-4l1897 0c59,0 277,8 316,0l0 -273c-28,-8 -1201,-4 -1265,-4l-1107 0c-47,0 -111,-4 -158,0 -8,43 0,221 0,281z"/>
  <polygon class="fil0" points="24160,22129 26689,22129 26689,21853 24160,21853 "/>
  <path class="fil0" d="M26824 23663c-16,8 -190,178 -190,182 -12,24 16,162 -95,308 -51,67 -123,123 -202,158 -138,59 -320,43 -447,-47 -40,-28 -75,-59 -107,-95 -28,-36 -55,-75 -71,-119 -36,-99 -47,-221 -12,-320 20,-59 43,-115 83,-158 32,-36 55,-67 99,-91 4,-4 8,-8 12,-12 111,-79 269,-95 403,-55 20,-16 32,-40 47,-59 0,0 4,0 4,0l32 -40c16,-24 47,-55 59,-83 -32,-24 -178,-59 -237,-59 -107,-4 -170,4 -261,32 -75,20 -134,55 -198,99l-99 87 -51 63c-170,221 -186,553 -24,794 4,12 8,16 12,24l24 32c0,0 4,4 4,4l24 28c12,16 24,24 36,36l79 71 95 55c24,12 32,12 55,24 154,59 344,67 502,4 20,-8 36,-16 51,-24 8,-4 16,-8 24,-12 12,-4 4,0 16,-4 0,-4 8,-8 12,-8l43 -28c4,-4 4,-4 8,-8l55 -40c12,-8 12,-8 20,-20 20,-20 40,-36 55,-55l32 -43c4,0 4,0 4,-4l12 -20c4,0 4,0 4,0 20,-32 40,-59 51,-95 47,-111 79,-245 63,-379 -8,-43 -20,-83 -28,-123z"/>
  <path class="fil0" d="M26061 23718c-8,-4 -8,-8 -16,-16 -8,-12 -8,-8 -16,-16 -4,-8 -8,-12 -12,-20 -59,-71 -209,-63 -241,55 -12,40 -4,83 12,111l16 20c8,8 8,8 16,16l123 138c12,24 8,8 28,36 8,12 8,8 16,20 43,43 55,83 130,99 55,12 107,-16 138,-55l206 -249c12,-8 8,-8 16,-20 8,-8 8,-8 16,-16 8,-8 8,-8 16,-16 8,-8 4,-12 12,-20l59 -71c8,-8 12,-12 20,-16l162 -194c40,-55 36,-130 0,-174 -4,-8 -12,-12 -16,-16 -40,-40 -99,-47 -150,-24 -12,0 -16,4 -24,8 -8,8 -8,8 -16,16l-182 209c-8,12 -8,12 -16,20l-59 71c-8,12 -8,12 -16,16l-28 36c-8,12 -8,8 -16,20l-59 71c-8,8 -8,8 -16,16 -8,12 -4,4 -16,20 -4,8 0,4 -12,16l-75 -91z"/>
  <path class="fil0" d="M24160 23280c55,4 810,0 901,0 43,0 277,4 300,-4l4 -273c-36,-8 -798,0 -901,0 -95,0 -213,4 -304,-4l0 281z"/>
  <path class="fil3" d="M23603 24995l3636 0 0 -316c-4,12 -4,59 -28,107 -4,12 -8,16 -12,24l-32 55c-115,150 -261,126 -419,126l-2668 0c-107,0 -206,12 -296,-36 -71,-40 -130,-99 -158,-178 -12,-32 -20,-71 -20,-111 4,-356 0,-711 0,-1067l0 -2403c0,-126 -16,-217 47,-320 0,0 0,-4 0,-4 0,0 0,0 4,0l0 -8c4,0 8,-8 8,-8 40,-51 87,-91 146,-119 55,-20 95,-16 107,-24l-316 0 0 4280z"/>
  <path class="fil3" d="M27239 21031l0 -316 -312 0 16 4c4,0 12,0 16,4 75,12 158,51 202,111 32,47 47,59 67,130 4,16 8,59 12,67z"/>
  <path class="fil2" d="M23759 20732l3332 0 125 0 0 125 0 4138 0 125 -125 0 -3332 0 -125 0 0 -125 0 -4138 0 -125 125 0zm3207 249l-3083 0 0 3889 3083 0 0 -3889z"/>
  <path class="fil1" d="M25374 19216c1029,0 1960,417 2635,1091 674,674 1091,1606 1091,2635 0,1029 -417,1960 -1091,2635 -674,674 -1606,1091 -2635,1091 -1029,0 -1960,-417 -2635,-1091 -674,-674 -1091,-1606 -1091,-2635 0,-1029 417,-1960 1091,-2635 674,-674 1606,-1091 2635,-1091zm2383 1343c-610,-610 -1452,-987 -2383,-987 -931,0 -1773,377 -2383,987 -610,610 -987,1452 -987,2383 0,931 377,1773 987,2383 610,610 1452,987 2383,987 931,0 1773,-377 2383,-987 610,-610 987,-1452 987,-2383 0,-931 -377,-1773 -987,-2383z"/>
  <path class="fil1" d="M15398 1798c1029,0 1960,417 2635,1091 674,674 1091,1606 1091,2635 0,1029 -417,1960 -1091,2635 -674,674 -1606,1091 -2635,1091 -1029,0 -1960,-417 -2635,-1091 -674,-674 -1091,-1606 -1091,-2635 0,-1029 417,-1960 1091,-2635 674,-674 1606,-1091 2635,-1091zm2383 1343c-610,-610 -1452,-987 -2383,-987 -931,0 -1773,377 -2383,987 -610,610 -987,1452 -987,2383 0,931 377,1773 987,2383 610,610 1452,987 2383,987 931,0 1773,-377 2383,-987 610,-610 987,-1452 987,-2383 0,-931 -377,-1773 -987,-2383z"/>
  <path class="fil2" d="M13974 5122l2965 0 125 0 0 125 0 1965 0 125 -125 0 -2965 0 -125 0 0 -125 0 -1965 0 -125 125 0zm2840 249l-2715 0 0 1716 2715 0 0 -1716z"/>
  <path class="fil2" d="M13974 3931l2965 0 125 0 0 125 0 1197 0 125 -125 0 -2965 0 -125 0 0 -125 0 -1197 0 -125 125 0zm2840 249l-2715 0 0 947 2715 0 0 -947z"/>
  <polygon class="fil2" points="12777,4639 12789,4612 12843,4500 12955,4554 14033,5074 14145,5128 14091,5240 14078,5267 14024,5379 13912,5325 12834,4804 12722,4750 "/>
  <polygon class="fil2" points="18026,4612 18039,4639 18093,4750 17981,4804 16904,5325 16792,5379 16738,5267 16725,5240 16671,5128 16783,5074 17860,4554 17972,4500 "/>
  <path class="fil0" d="M13057 14637c41,-428 254,-855 509,-1171 41,-61 71,-102 132,-143 112,-112 112,-132 285,-275 855,-631 2076,-621 2911,41 41,41 112,92 153,122l143 143c132,153 234,305 336,489 81,143 285,651 254,835 -20,-41 -173,-102 -254,-122 -265,-61 -529,41 -702,224l-102 92c-41,-20 -20,-31 -61,-61 -31,-31 -31,-31 -61,-61 -316,-326 -886,-265 -1160,112 -92,-102 -122,-153 -254,-234 -234,-122 -570,-122 -804,-10 -153,71 -173,132 -265,214 -61,-51 -92,-112 -193,-173 -173,-112 -387,-143 -601,-112 -163,20 -193,71 -265,92zm-244 183l0 285c112,163 204,61 224,-20 20,-143 51,-204 143,-265 183,-112 478,-81 641,31 234,173 153,316 275,336 153,20 102,-183 295,-316 275,-204 692,-143 865,122 81,102 51,214 51,356l0 1211c0,122 0,254 61,346 92,122 193,122 244,153l153 0c81,-41 193,-41 275,-193 92,-193 -31,-316 -132,-254 -92,51 -10,244 -234,234 -183,-20 -143,-163 -143,-326 0,-122 -10,-1344 0,-1405 10,-81 417,-621 906,-214 132,102 173,214 214,254 51,51 122,31 163,-10 71,-102 143,-265 356,-346 244,-102 509,-20 611,244 31,61 41,122 102,132 81,31 112,-31 143,-71l0 -316c-41,-92 0,-428 -265,-967 -407,-835 -1283,-1435 -2229,-1456 -20,-305 41,-346 -81,-438l-61 0c-122,81 -71,173 -81,438 -998,20 -1863,682 -2239,1476 -265,550 -224,875 -254,977z"/>
  <path class="fil1" d="M15398 10909c1029,0 1960,417 2635,1091 674,674 1091,1606 1091,2635 0,1029 -417,1960 -1091,2635 -674,674 -1606,1091 -2635,1091 -1029,0 -1960,-417 -2635,-1091 -674,-674 -1091,-1606 -1091,-2635 0,-1029 417,-1960 1091,-2635 674,-674 1606,-1091 2635,-1091zm2383 1343c-610,-610 -1452,-987 -2383,-987 -931,0 -1773,377 -2383,987 -610,610 -987,1452 -987,2383 0,931 377,1773 987,2383 610,610 1452,987 2383,987 931,0 1773,-377 2383,-987 610,-610 987,-1452 987,-2383 0,-931 -377,-1773 -987,-2383z"/>
  <path class="fil2" d="M16783 21738l-82 -51c-142,-5 -227,-5 -337,108l-4 4c-110,103 -298,423 -470,719 -113,194 -220,376 -304,494 -142,225 -318,206 -539,181 -29,-3 -58,-6 -74,-8l-1858 -5 -4 0c-25,-1 -39,-1 -51,-2 -43,-2 -62,-2 -66,-2 -5,1 2,1 -4,3 -11,5 -26,12 -48,20l-163 264c54,45 137,61 236,80 44,8 90,17 136,28l3 1c89,23 271,63 480,108 485,105 1110,241 1212,331l53 46 -12 69c-13,73 -120,274 -245,485 -156,263 -343,553 -396,609l-10 10 -12 8c-121,81 -226,72 -330,63 -99,-9 -197,-17 -312,220 87,38 196,62 305,85 153,33 306,66 433,145 100,62 198,177 299,294 78,91 158,184 223,236 159,-208 97,-312 40,-407 -57,-95 -111,-185 -87,-319l1 -5 3 -11c19,-58 157,-296 301,-528 144,-232 296,-465 344,-516l57 -61 78 29c69,26 200,151 338,301 178,194 381,438 453,538 178,198 314,364 418,491 119,145 193,235 236,261 11,7 2,-34 41,-96 21,-34 31,-50 40,-65 61,-97 89,-142 82,-180 -11,-55 -63,-146 -162,-315 -44,-76 -97,-167 -151,-264l0 -1c-93,-171 -183,-343 -273,-515 -88,-168 -175,-335 -271,-511l0 0c-46,-86 -84,-152 -116,-208 -106,-187 -158,-278 -148,-401 9,-111 68,-206 183,-393 47,-76 104,-169 178,-295l2 -3c46,-74 94,-145 142,-215 151,-223 291,-430 289,-660 -13,-53 -29,-91 -50,-139 -7,-17 -15,-36 -24,-56zm20 -280l145 90 36 22 15 38c14,36 26,63 36,88 27,63 48,111 66,191l2 10 0 14c11,315 -154,558 -332,820 -45,66 -90,133 -134,203l0 0c-69,119 -131,219 -182,301 -94,152 -142,230 -146,282 -4,49 35,117 115,259 34,61 75,132 119,213l0 0c93,171 182,342 272,514 87,167 175,335 270,510l0 0c62,111 110,192 149,261 112,193 172,296 191,392 27,134 -19,206 -116,360 -15,24 -32,51 -39,63 -132,213 -216,280 -383,177 -78,-49 -162,-150 -297,-315 -100,-121 -230,-281 -414,-485l-3 -4 -6 -9c-60,-86 -260,-326 -439,-520 -67,-72 -128,-136 -173,-180 -63,92 -157,240 -249,389 -127,206 -248,409 -272,464 -3,42 26,90 56,141 109,182 228,381 -131,776l-53 59 -76 -24c-141,-45 -274,-200 -404,-351 -88,-102 -174,-203 -240,-244 -89,-55 -222,-84 -355,-112 -174,-38 -348,-75 -484,-178l-76 -57 35 -88c202,-509 404,-492 607,-474 56,5 112,10 158,-14 55,-68 215,-320 354,-555 74,-124 140,-241 179,-318 -184,-59 -649,-161 -1025,-242 -202,-44 -379,-82 -487,-110l0 0c-45,-11 -87,-19 -127,-26 -195,-37 -347,-67 -450,-256l-34 -63 38 -61 231 -374 23 -37 41 -15c36,-13 56,-22 70,-28 24,-11 38,-17 67,-22 28,-5 54,-4 115,-1 17,1 36,1 50,2l0 0 1861 5 6 0 5 0c41,4 63,6 84,8 136,15 244,27 304,-69l5 -7c73,-101 179,-283 293,-477 180,-309 377,-645 515,-774 188,-192 315,-187 533,-179l20 1 33 1 28 17z"/>
  <path class="fil1" d="M15398 20142c1029,0 1960,417 2635,1091 674,674 1091,1606 1091,2635 0,1029 -417,1960 -1091,2635 -674,674 -1606,1091 -2635,1091 -1029,0 -1960,-417 -2635,-1091 -674,-674 -1091,-1606 -1091,-2635 0,-1029 417,-1960 1091,-2635 674,-674 1606,-1091 2635,-1091zm2383 1343c-610,-610 -1452,-987 -2383,-987 -931,0 -1773,377 -2383,987 -610,610 -987,1452 -987,2383 0,931 377,1773 987,2383 610,610 1452,987 2383,987 931,0 1773,-377 2383,-987 610,-610 987,-1452 987,-2383 0,-931 -377,-1773 -987,-2383z"/>
  <path class="fil1" d="M5645 10100c1029,0 1960,417 2635,1091 674,674 1091,1606 1091,2635 0,1029 -417,1960 -1091,2635 -674,674 -1606,1091 -2635,1091 -1029,0 -1960,-417 -2635,-1091 -674,-674 -1091,-1606 -1091,-2635 0,-1029 417,-1960 1091,-2635 674,-674 1606,-1091 2635,-1091zm2383 1343c-610,-610 -1452,-987 -2383,-987 -931,0 -1773,377 -2383,987 -610,610 -987,1452 -987,2383 0,931 377,1773 987,2383 610,610 1452,987 2383,987 931,0 1773,-377 2383,-987 610,-610 987,-1452 987,-2383 0,-931 -377,-1773 -987,-2383z"/>
  <path class="fil2" d="M5997 15792l-481 0 0 -3065c-116,111 -268,222 -456,332 -188,110 -357,193 -507,248l0 -465c269,-126 504,-279 706,-460 202,-180 345,-354 429,-523l310 0 0 3934z"/>
  <path class="fil1" d="M5645 1555c1029,0 1960,417 2635,1091 674,674 1091,1606 1091,2635 0,1029 -417,1960 -1091,2635 -674,674 -1606,1091 -2635,1091 -1029,0 -1960,-417 -2635,-1091 -674,-674 -1091,-1606 -1091,-2635 0,-1029 417,-1960 1091,-2635 674,-674 1606,-1091 2635,-1091zm2383 1343c-610,-610 -1452,-987 -2383,-987 -931,0 -1773,377 -2383,987 -610,610 -987,1452 -987,2383 0,931 377,1773 987,2383 610,610 1452,987 2383,987 931,0 1773,-377 2383,-987 610,-610 987,-1452 987,-2383 0,-931 -377,-1773 -987,-2383z"/>
  <path class="fil2" d="M6789 6547l0 401 -2263 0c-3,-101 14,-198 49,-292 58,-154 151,-306 279,-454 128,-149 311,-321 549,-516 370,-305 621,-546 753,-724 132,-178 198,-347 198,-506 0,-166 -60,-306 -179,-421 -119,-114 -275,-171 -467,-171 -203,0 -365,60 -487,181 -122,120 -183,287 -185,501l-430 -43c29,-321 141,-567 333,-735 193,-169 452,-253 777,-253 328,0 588,91 779,273 192,182 287,408 287,677 0,137 -28,271 -84,403 -56,133 -149,272 -279,419 -131,146 -346,347 -647,602 -252,212 -415,355 -486,430 -72,76 -131,151 -177,228l1678 0z"/>
 </g>
</svg>
