<?xml version="1.0" encoding="UTF-8"?>
<!DOCTYPE svg PUBLIC "-//W3C//DTD SVG 1.1//EN" "http://www.w3.org/Graphics/SVG/1.1/DTD/svg11.dtd">
<!-- Creator: CorelDRAW X6 -->
<svg xmlns="http://www.w3.org/2000/svg" xml:space="preserve" width="24px" height="20px" version="1.1" style="shape-rendering:geometricPrecision; text-rendering:geometricPrecision; image-rendering:optimizeQuality; fill-rule:evenodd; clip-rule:evenodd"
viewBox="0 0 3172 3181"
 xmlns:xlink="http://www.w3.org/1999/xlink">
 <defs>
  <style type="text/css">
   <![CDATA[
    .fil0 {fill:#323044}
    .fil1 {fill:#323044;fill-rule:nonzero}
   ]]>
  </style>
 </defs>
 <g id="Слой_x0020_1">
  <metadata id="CorelCorpID_0Corel-Layer"/>
  <path class="fil0" d="M1460 2549l247 0c8,-31 4,-1346 3,-1400l-253 -2c-3,127 -5,1378 3,1402z"/>
  <path class="fil0" d="M1429 693c4,22 -7,56 -4,85 22,179 302,170 311,-10 2,-38 -9,-60 -9,-87l-15 -19c-70,-97 -200,-84 -258,-5l-22 33c0,-1 -2,2 -3,3z"/>
  <path class="fil1" d="M1588 -11c439,0 836,178 1124,466 288,288 466,685 466,1124 0,439 -178,836 -466,1124 -288,288 -685,466 -1124,466 -439,0 -836,-178 -1124,-466 -288,-288 -466,-685 -466,-1124 0,-439 178,-836 466,-1124 288,-288 685,-466 1124,-466zm1018 572c-260,-260 -620,-422 -1018,-422 -398,0 -757,161 -1018,422 -260,261 -422,620 -422,1018 0,398 161,757 422,1018 260,260 620,422 1018,422 398,0 757,-161 1018,-422 260,-260 422,-620 422,-1018 0,-398 -161,-757 -422,-1018z"/>
 </g>
</svg>
