<?xml version="1.0" encoding="UTF-8"?>
<!DOCTYPE svg PUBLIC "-//W3C//DTD SVG 1.1//EN" "http://www.w3.org/Graphics/SVG/1.1/DTD/svg11.dtd">
<!-- Creator: CorelDRAW X6 -->
<svg xmlns="http://www.w3.org/2000/svg" xml:space="preserve" width="38px" height="35px" version="1.1" style="shape-rendering:geometricPrecision; text-rendering:geometricPrecision; image-rendering:optimizeQuality; fill-rule:evenodd; clip-rule:evenodd"
viewBox="0 0 3722 3331"
 xmlns:xlink="http://www.w3.org/1999/xlink">
 <defs>
  <style type="text/css">
   <![CDATA[
    .str0 {stroke:#A1A1A1;stroke-width:150}
    .fil0 {fill:none}
   ]]>
  </style>
 </defs>
 <g id="Слой_x0020_1">
  <metadata id="CorelCorpID_0Corel-Layer"/>
  <path class="fil0 str0" d="M213 1649l-117 700 379 0 311 -482 706 91 -345 1289 537 0 824 -1285c276,-4 552,-4 827,0 164,-8 294,-139 302,-302 0,-3 0,-6 -1,-9 -12,-159 -141,-285 -302,-293 -276,4 -552,4 -827,0l-824 -1285 -537 0 345 1289 -706 91 -311 -482 -379 0 118 695 -118 -695"/>
 </g>
</svg>
