<?xml version="1.0" encoding="UTF-8"?>
<!DOCTYPE svg PUBLIC "-//W3C//DTD SVG 1.1//EN" "http://www.w3.org/Graphics/SVG/1.1/DTD/svg11.dtd">
<!-- Creator: CorelDRAW X6 -->
<svg xmlns="http://www.w3.org/2000/svg" xml:space="preserve" width="158px" height="110px" version="1.1" style="shape-rendering:geometricPrecision; text-rendering:geometricPrecision; image-rendering:optimizeQuality; fill-rule:evenodd; clip-rule:evenodd"
viewBox="0 0 10222 7081"
 xmlns:xlink="http://www.w3.org/1999/xlink">
 <defs>
  <style type="text/css">
   <![CDATA[
    .str0 {stroke:#A1A1A1;stroke-width:50}
    .str2 {stroke:#A1A1A1;stroke-width:100}
    .str1 {stroke:#A1A1A1;stroke-width:150}
    .fil1 {fill:none}
    .fil0 {fill:#A1A1A1;fill-rule:nonzero}
   ]]>
  </style>
 </defs>
 <g id="Слой_x0020_1">
  <metadata id="CorelCorpID_0Corel-Layer"/>
  <path class="fil0 str0" d="M538 1523l2341 0 0 92 -2341 0c-114,0 -218,47 -293,122 -75,75 -122,179 -122,293l0 4518c0,114 47,218 122,293 75,75 179,122 293,122l9141 0c114,0 218,-47 293,-122 75,-75 122,-179 122,-293l0 -4518c0,-114 -47,-218 -122,-293 -75,-75 -179,-122 -293,-122l-2354 0 0 -92 2354 0c140,0 267,57 359,149 92,92 149,219 149,359l0 4518c0,140 -57,267 -149,359 -92,92 -219,149 -359,149l-9141 0c-140,0 -267,-57 -359,-149 -92,-92 -149,-219 -149,-359l0 -4518c0,-140 57,-267 149,-359 92,-92 219,-149 359,-149z"/>
  <g id="_1325344400">
   <path class="fil1 str1" d="M3817 813l269 0 0 -391 -232 0c-97,0 -177,-80 -177,-177l0 0c0,-97 80,-177 177,-177l918 0c97,0 177,80 177,177l0 0c0,97 -80,177 -177,177l-172 0 0 391 349 0c112,0 203,91 203,203l0 1646c0,112 -91,203 -203,203l-1206 0c-112,0 -203,-91 -203,-203l0 -1572c0,-152 125,-277 277,-277z"/>
   <path class="fil0 str0" d="M4108 2007l109 -8c8,53 27,93 56,120 29,27 65,40 107,40 51,0 94,-19 128,-57 35,-38 52,-88 52,-151 0,-60 -16,-107 -50,-141 -33,-34 -77,-52 -131,-52 -34,0 -64,8 -91,23 -27,15 -48,35 -63,60l-99 -14 82 -438 422 0 0 100 -339 0 -45 230c51,-36 104,-54 160,-54 74,0 137,26 188,77 51,52 77,118 77,199 0,77 -22,144 -67,200 -54,69 -129,103 -223,103 -77,0 -140,-22 -189,-65 -49,-43 -77,-101 -84,-173z"/>
   <path class="fil0 str2" d="M6115 2409l-69 0 0 -438c-17,16 -38,32 -65,47 -27,16 -51,28 -72,35l0 -66c38,-18 72,-40 101,-66 29,-26 49,-51 61,-75l44 0 0 562z"/>
   <path class="fil1 str1" d="M5664 1415l192 0 0 -279 -166 0c-70,0 -126,-57 -126,-126l0 0c0,-70 57,-126 126,-126l656 0c70,0 126,57 126,126l0 0c0,70 -57,126 -126,126l-123 0 0 279 249 0c80,0 145,65 145,145l0 1176c0,80 -65,145 -145,145l-861 0c-80,0 -145,-65 -145,-145l0 -1123c0,-109 89,-198 198,-198z"/>
  </g>
 </g>
</svg>
