<?xml version="1.0" encoding="UTF-8"?>
<!DOCTYPE svg PUBLIC "-//W3C//DTD SVG 1.1//EN" "http://www.w3.org/Graphics/SVG/1.1/DTD/svg11.dtd">
<!-- Creator: CorelDRAW X6 -->
<svg xmlns="http://www.w3.org/2000/svg" xml:space="preserve" width="158px" height="110px" version="1.1" style="shape-rendering:geometricPrecision; text-rendering:geometricPrecision; image-rendering:optimizeQuality; fill-rule:evenodd; clip-rule:evenodd"
viewBox="0 0 10222 7181"
 xmlns:xlink="http://www.w3.org/1999/xlink">
 <defs>
  <style type="text/css">
   <![CDATA[
    .str0 {stroke:#A1A1A1;stroke-width:50}
    .str1 {stroke:#A1A1A1;stroke-width:150}
    .fil1 {fill:none}
    .fil0 {fill:#A1A1A1;fill-rule:nonzero}
   ]]>
  </style>
 </defs>
 <g id="Слой_x0020_1">
  <metadata id="CorelCorpID_0Corel-Layer"/>
  <path class="fil0 str0" d="M548 1609l2341 0 0 92 -2341 0c-114,0 -218,47 -293,122 -75,75 -122,179 -122,293l0 4518c0,114 47,218 122,293 75,75 179,122 293,122l9141 0c114,0 218,-47 293,-122 75,-75 122,-179 122,-293l0 -4518c0,-114 -47,-218 -122,-293 -75,-75 -179,-122 -293,-122l-2354 0 0 -92 2354 0c140,0 267,57 359,149 92,92 149,219 149,359l0 4518c0,140 -57,267 -149,359 -92,92 -219,149 -359,149l-9141 0c-140,0 -267,-57 -359,-149 -92,-92 -149,-219 -149,-359l0 -4518c0,-140 57,-267 149,-359 92,-92 219,-149 359,-149z"/>
  <g id="_820292048">
   <path class="fil1 str1" d="M5318 726c-3,181 91,349 247,440 156,91 349,91 505,0 156,-91 251,-260 247,-440l-1210 0 324 -235 -271 -370 1184 88 -26 517"/>
   <line class="fil1 str1" x1="5431" y1="491" x2="6331" y2= "491" />
   <path class="fil1 str1" d="M5020 3076l1587 0 0 -1403c-19,-221 -139,-337 -360,-351 -286,-12 -573,-12 -859,0l-754 701 -246 -254 -640 0 -246 -1039 837 4 203 1037 -155 -2"/>
   <polyline class="fil1 str1" points="3503,731 4456,365 4728,1619 "/>
   <path class="fil1 str1" d="M3748 1770l708 753c91,53 181,53 272,0l287 -267 5 873"/>
   <line class="fil1 str1" x1="6201" y1="1321" x2="5017" y2= "2666" />
   <line class="fil1 str1" x1="6557" y1="1492" x2="5276" y2= "3076" />
  </g>
 </g>
</svg>
