<?xml version="1.0" encoding="UTF-8"?>
<!DOCTYPE svg PUBLIC "-//W3C//DTD SVG 1.1//EN" "http://www.w3.org/Graphics/SVG/1.1/DTD/svg11.dtd">
<!-- Creator: CorelDRAW X6 -->
<svg xmlns="http://www.w3.org/2000/svg" xml:space="preserve" width="158px" height="110px" version="1.1" style="shape-rendering:geometricPrecision; text-rendering:geometricPrecision; image-rendering:optimizeQuality; fill-rule:evenodd; clip-rule:evenodd"
viewBox="0 0 10222 7181"
 xmlns:xlink="http://www.w3.org/1999/xlink">
 <defs>
  <style type="text/css">
   <![CDATA[
    .fil1 {fill:none}
    .fil0 {fill:#A1A1A1;fill-rule:nonzero}
   ]]>
  </style>
 </defs>
 <g id="Слой_x0020_1">
  <metadata id="CorelCorpID_0Corel-Layer"/>
  <g id="_1325345232">
   <path class="fil0" d="M538 1617l2341 0 0 92 -2341 0c-114,0 -218,47 -293,122 -75,75 -122,179 -122,293l0 4518c0,114 47,218 122,293 75,75 179,122 293,122l9141 0c114,0 218,-47 293,-122 75,-75 122,-179 122,-293l0 -4518c0,-114 -47,-218 -122,-293 -75,-75 -179,-122 -293,-122l-2354 0 0 -92 2354 0c140,0 267,57 359,149 92,92 149,219 149,359l0 4518c0,140 -57,267 -149,359 -92,92 -219,149 -359,149l-9141 0c-140,0 -267,-57 -359,-149 -92,-92 -149,-219 -149,-359l0 -4518c0,-140 57,-267 149,-359 92,-92 219,-149 359,-149z"/>
   <path class="fil0" d="M538 1592l2341 0 25 0 0 25 0 92 0 25 -25 0 -2341 0c-53,0 -103,11 -149,30 -48,20 -91,49 -127,85l0 0c-36,36 -65,79 -85,127 -19,46 -30,96 -30,149l0 4518c0,53 11,103 30,149 20,48 49,91 85,127 71,71 168,115 276,115l9141 0c53,0 103,-11 149,-30 48,-20 91,-49 127,-85 71,-71 115,-168 115,-276l0 -4518c0,-53 -11,-103 -30,-149 -20,-48 -49,-91 -85,-127l0 0c-36,-36 -79,-65 -127,-85 -46,-19 -96,-30 -149,-30l-2354 0 -25 0 0 -25 0 -92 0 -25 25 0 2354 0c72,0 140,14 203,41 65,27 124,67 173,116 49,49 89,108 116,173 26,63 41,131 41,203l0 4518c0,72 -14,140 -41,203 -27,65 -67,124 -116,173 -49,49 -108,89 -173,116 -63,26 -131,41 -203,41l-9141 0c-72,0 -140,-14 -203,-41 -65,-27 -124,-67 -173,-116 -49,-49 -89,-108 -116,-173 -26,-63 -41,-131 -41,-203l0 -4518c0,-72 14,-140 41,-203 27,-65 67,-124 116,-173 49,-49 108,-89 173,-116 63,-26 131,-41 203,-41zm2316 50l-2316 0c-65,0 -127,13 -184,37 -59,25 -112,61 -157,105 -45,45 -81,98 -105,157 -24,57 -37,119 -37,184l0 4518c0,65 13,127 37,184 25,59 61,112 105,157 45,45 98,81 157,105 57,24 119,37 184,37l9141 0c65,0 127,-13 184,-37 59,-25 112,-61 157,-105 45,-45 81,-98 105,-157 24,-57 37,-119 37,-184l0 -4518c0,-65 -13,-127 -37,-184 -25,-59 -61,-112 -105,-157 -45,-45 -98,-81 -157,-105 -57,-24 -119,-37 -184,-37l-2329 0 0 42 2329 0c59,0 116,12 168,34 54,22 103,55 143,96l0 0c41,41 73,89 96,143 22,52 34,109 34,168l0 4518c0,121 -50,231 -129,311 -41,41 -89,73 -143,96 -52,22 -109,34 -168,34l-9141 0c-121,0 -231,-50 -311,-129 -41,-41 -73,-89 -96,-143 -22,-52 -34,-109 -34,-168l0 -4518c0,-59 12,-116 34,-168 22,-54 55,-102 96,-143l0 0c41,-41 89,-73 143,-96 52,-22 109,-34 168,-34l2316 0 0 -42z"/>
   <path class="fil1" d="M3479 1653l-117 700 379 0 311 -482 706 91 -345 1289 537 0 824 -1285c276,-4 552,-4 827,0 164,-8 294,-139 302,-302 0,-3 0,-6 -1,-9 -12,-159 -141,-285 -302,-293 -276,4 -552,4 -827,0l-824 -1285 -537 0 345 1289 -706 91 -311 -482 -379 0 118 695 -118 -695"/>
   <path class="fil0" d="M3553 1666l-103 613 249 0 289 -448 26 -40 47 6 706 91 85 11 -22 82 -320 1195 399 0 802 -1251 22 -34 41 -1c151,-2 289,-3 415,-3 124,0 261,1 411,3 62,-3 118,-30 159,-71 41,-41 67,-95 71,-156l0 0 0 -4 0 0c-5,-61 -32,-116 -73,-156 -41,-40 -96,-65 -157,-68 -150,2 -287,3 -411,3 -125,0 -264,-1 -415,-3l-41 -1 -22 -34 -802 -1251 -399 0 320 1195 22 82 -85 11 -706 91 -47 6 -26 -40 -289 -448 -249 0 103 608 -28 5 28 5zm-265 675l114 -681 -114 -675 -15 -87 89 0 379 0 41 0 22 35 286 443 574 -74 -323 -1206 -25 -94 98 0 537 0 41 0 22 35 803 1252c114,1 238,2 372,2 151,0 288,-1 413,-3l4 0c99,5 188,46 255,111 67,65 110,153 118,252l0 1 0 5 0 1 0 5 0 4 0 4c-5,101 -48,192 -114,259 -67,67 -158,110 -259,114l-4 0c-125,-2 -262,-3 -413,-3 -134,0 -259,1 -372,2l-803 1252 -22 35 -41 0 -537 0 -98 0 25 -94 323 -1206 -574 -74 -286 443 -22 35 -41 0 -379 0 -88 0 15 -87z"/>
  </g>
 </g>
</svg>
