<?xml version="1.0" encoding="UTF-8"?>
<!DOCTYPE svg PUBLIC "-//W3C//DTD SVG 1.1//EN" "http://www.w3.org/Graphics/SVG/1.1/DTD/svg11.dtd">
<!-- Creator: CorelDRAW X6 -->
<svg xmlns="http://www.w3.org/2000/svg" xml:space="preserve" width="158px" height="110px" version="1.1" style="shape-rendering:geometricPrecision; text-rendering:geometricPrecision; image-rendering:optimizeQuality; fill-rule:evenodd; clip-rule:evenodd"
viewBox="0 0 10222 6831"
 xmlns:xlink="http://www.w3.org/1999/xlink">
 <defs>
  <style type="text/css">
   <![CDATA[
    .str0 {stroke:#A1A1A1;stroke-width:50}
    .str1 {stroke:#A1A1A1;stroke-width:150}
    .fil1 {fill:none}
    .fil0 {fill:#A1A1A1;fill-rule:nonzero}
   ]]>
  </style>
 </defs>
 <g id="Слой_x0020_1">
  <metadata id="CorelCorpID_0Corel-Layer"/>
  <path class="fil0 str0" d="M541 1259l2341 0 0 92 -2341 0c-114,0 -218,47 -293,122 -75,75 -122,179 -122,293l0 4518c0,114 47,218 122,293 75,75 179,122 293,122l9141 0c114,0 218,-47 293,-122 75,-75 122,-179 122,-293l0 -4518c0,-114 -47,-218 -122,-293 -75,-75 -179,-122 -293,-122l-2354 0 0 -92 2354 0c140,0 267,57 359,149 92,92 149,219 149,359l0 4518c0,140 -57,267 -149,359 -92,92 -219,149 -359,149l-9141 0c-140,0 -267,-57 -359,-149 -92,-92 -149,-219 -149,-359l0 -4518c0,-140 57,-267 149,-359 92,-92 219,-149 359,-149z"/>
  <g id="_1325355216">
   <path class="fil1 str1" d="M3386 86l2186 0 0 1930 -987 0c6,-25 9,-51 9,-78 0,-184 -149,-333 -333,-333 -184,0 -333,149 -333,333 0,27 3,53 9,78l-553 0 0 -1930z"/>
   <path class="fil0" d="M5572 437l776 0 35 0 23 27c75,89 147,173 209,245 179,208 271,315 322,450 53,142 52,296 50,612 0,52 -1,109 -1,243l0 75 -75 0 -415 0c23,-45 36,-96 37,-150l304 0c0,-50 1,-112 1,-169 2,-298 3,-443 -40,-559 -41,-108 -127,-209 -295,-404 -52,-60 -111,-129 -187,-220l-666 0 0 1352 219 0c0,54 13,105 37,150l-330 0 -75 0 0 -75 0 -1502 0 -75 75 0z"/>
   <path class="fil1 str1" d="M6183 817l425 0c143,176 183,216 259,420l-684 -5c-135,-1 -245,-93 -245,-208l0 0c0,-114 110,-208 245,-208z"/>
   <path class="fil1 str1" d="M4262 1605c184,0 333,149 333,333 0,184 -149,333 -333,333 -184,0 -333,-149 -333,-333 0,-184 149,-333 333,-333z"/>
   <path class="fil1 str1" d="M6198 1605c184,0 333,149 333,333 0,184 -149,333 -333,333 -184,0 -333,-149 -333,-333 0,-184 149,-333 333,-333z"/>
  </g>
 </g>
</svg>
