<?xml version="1.0" encoding="UTF-8"?>
<!DOCTYPE svg PUBLIC "-//W3C//DTD SVG 1.1//EN" "http://www.w3.org/Graphics/SVG/1.1/DTD/svg11.dtd">
<!-- Creator: CorelDRAW X6 -->
<svg xmlns="http://www.w3.org/2000/svg" xml:space="preserve" width="24px" height="20px" version="1.1" style="shape-rendering:geometricPrecision; text-rendering:geometricPrecision; image-rendering:optimizeQuality; fill-rule:evenodd; clip-rule:evenodd"
viewBox="0 0 2522 3131"
 xmlns:xlink="http://www.w3.org/1999/xlink">
 <defs>
  <style type="text/css">
   <![CDATA[
    .fil0 {fill:#323044;fill-rule:nonzero}
   ]]>
  </style>
 </defs>
 <g id="Слой_x0020_1">
  <metadata id="CorelCorpID_0Corel-Layer"/>
  <path class="" d="M435 18l1457 0c58,0 114,12 166,33 53,22 101,54 141,94l0 0c40,40 72,88 94,141 21,51 33,107 33,166l0 621 0 56 -42 -38 -107 -96 -8 -7 0 -11 0 -525c0,-37 -7,-73 -21,-106 -14,-34 -35,-64 -60,-90l0 0c-26,-26 -56,-46 -90,-60 -33,-14 -68,-21 -106,-21l-1457 0c-37,0 -73,7 -106,21 -34,14 -64,35 -90,60 -26,26 -46,56 -60,90 -14,33 -21,68 -21,106l0 2235c0,37 7,73 21,106 14,34 35,65 60,90l0 0c26,26 56,46 90,60 33,14 68,21 106,21l1457 0c37,0 73,-7 106,-21 34,-14 64,-35 90,-60l0 0c26,-26 46,-56 60,-90 14,-33 21,-68 21,-106l0 -604 0 -11 8 -7 107 -96 42 -38 0 56 0 700c0,58 -12,114 -33,166 -22,53 -54,101 -94,141 -40,40 -88,72 -141,94 -51,21 -107,33 -166,33l-1457 0c-58,0 -114,-12 -166,-33 -53,-22 -101,-54 -141,-94 -40,-40 -72,-88 -94,-141 -21,-51 -33,-107 -33,-166l0 -2235c0,-58 12,-114 33,-166 22,-53 54,-101 94,-141l0 0c40,-40 88,-72 141,-94 51,-21 107,-33 166,-33z"/>
  <path class="" d="M801 1841l779 0 75 0 0 75 0 217 668 -603 -668 -603 0 217 0 75 -75 0 -779 0 0 622zm704 150l-779 0 -75 0 0 -75 0 -772 0 -75 75 0 779 0 0 -311 0 -168 125 113 854 772 61 55 -61 55 -854 772 -125 113 0 -168 0 -311z"/>
 </g>
</svg>
