<?xml version="1.0" encoding="UTF-8"?>
<!DOCTYPE svg PUBLIC "-//W3C//DTD SVG 1.1//EN" "http://www.w3.org/Graphics/SVG/1.1/DTD/svg11.dtd">
<!-- Creator: CorelDRAW X6 -->
<svg xmlns="http://www.w3.org/2000/svg" xml:space="preserve" width="24px" height="20px" version="1.1" style="shape-rendering:geometricPrecision; text-rendering:geometricPrecision; image-rendering:optimizeQuality; fill-rule:evenodd; clip-rule:evenodd"
viewBox="0 0 2722 2231"
 xmlns:xlink="http://www.w3.org/1999/xlink">
 <defs>
  <style type="text/css">
   <![CDATA[
    .fil1 {fill:#323044}
    .fil0 {fill:#323044;fill-rule:nonzero}
   ]]>
  </style>
 </defs>
 <g id="Слой_x0020_1">
  <metadata id="CorelCorpID_0Corel-Layer"/>
  <path class="" d="M453 2l1817 0c123,0 234,50 315,131 81,81 131,192 131,315l0 1335c0,123 -50,234 -131,315 -81,81 -192,131 -315,131l-1817 0c-123,0 -234,-50 -315,-131 -81,-81 -131,-192 -131,-315l0 -1335c0,-123 50,-234 131,-315 81,-81 192,-131 315,-131zm1817 150l-1817 0c-81,0 -155,33 -209,87 -54,54 -87,128 -87,209l0 1335c0,81 33,155 87,209 54,54 128,87 209,87l1817 0c81,0 155,-33 209,-87 54,-54 87,-128 87,-209l0 -1335c0,-81 -33,-155 -87,-209 -54,-54 -128,-87 -209,-87z"/>
  <path class="" d="M453 8l1486 0c242,0 440,198 440,440l0 245 -138 0 0 -245c0,-166 -136,-302 -302,-302l-1486 0c-166,0 -302,136 -302,302l0 1335c0,166 136,302 302,302l1486 0c166,0 302,-136 302,-302l0 -260 138 0 0 260c0,242 -198,440 -440,440l-1486 0c-242,0 -440,-198 -440,-440l0 -1335c0,-242 198,-440 440,-440z"/>
  <path class="" d="M1941 693l700 0 69 0 0 69 0 693 0 69 -69 0 -700 0c-114,0 -218,-47 -293,-122 -75,-75 -122,-179 -122,-293 0,-114 47,-218 122,-294 75,-75 179,-122 293,-122zm631 138l-631 0c-76,0 -145,31 -196,81 -50,50 -81,119 -81,196 0,76 31,145 81,196 50,50 119,81 196,81l631 0 0 -554z"/>
  <path class="" d="M1952 1015c48,0 87,39 87,87 0,48 -39,87 -87,87 -48,0 -87,-39 -87,-87 0,-48 39,-87 87,-87z"/>
 </g>
</svg>
