<?xml version="1.0" encoding="UTF-8"?>
<!DOCTYPE svg PUBLIC "-//W3C//DTD SVG 1.1//EN" "http://www.w3.org/Graphics/SVG/1.1/DTD/svg11.dtd">
<!-- Creator: CorelDRAW X6 -->
<svg xmlns="http://www.w3.org/2000/svg" xml:space="preserve" width="27px" height="18px" version="1.1" style="shape-rendering:geometricPrecision; text-rendering:geometricPrecision; image-rendering:optimizeQuality; fill-rule:evenodd; clip-rule:evenodd"
viewBox="0 0 3122 1781"
 xmlns:xlink="http://www.w3.org/1999/xlink">
 <defs>
  <style type="text/css">
   <![CDATA[
    .fil1 {fill:#323044}
    .fil0 {fill:#F86957}
   ]]>
  </style>
 </defs>
 <g id="Слой_x0020_1">
  <metadata id="CorelCorpID_0Corel-Layer"/>
  <g id="_1313318800">
   <polygon class="fil0" points="0,1533 3130,1533 3130,1392 0,1392 "/>
   <polygon class="fil0" points="0,1813 3130,1813 3130,1673 0,1673 "/>
   <polygon class="fil0" points="0,1252 3130,1252 3130,1112 0,1112 "/>
   <polygon class="fil0" points="0,972 0,972 3130,972 3130,832 1385,832 1385,972 "/>
   <polygon class="fil0" points="1385,411 3130,411 3130,271 1385,271 "/>
   <polygon class="fil0" points="1385,131 3130,131 3130,-9 1385,-9 "/>
   <polygon class="fil0" points="1385,692 3130,692 3130,551 1385,551 "/>
   <path class="fil1" d="M1385 972l-1385 0 0 -982 1385 0 0 982zm-590 -508l-38 2c7,6 23,16 29,22l-11 37c10,-6 22,-16 32,-22 7,3 25,17 33,22l-12 -37c9,-9 23,-15 31,-24l-39 0c-2,-6 -4,-12 -6,-18 -2,-6 -4,-14 -7,-18l-12 37zm0 -197l-39 0c4,7 22,17 30,24l-11 38c10,-5 21,-16 32,-22l33 22 -12 -38c8,-6 26,-17 31,-24l-39 0c-3,-10 -7,-30 -13,-36l-12 37zm-229 -197l-39 0c5,6 24,19 31,24l-12 38c11,-5 22,-17 33,-22 11,5 19,16 32,22l-12 -38c6,-4 28,-18 31,-23l-39 0 -13 -37c-6,7 -10,27 -13,36zm229 0l-39 0c3,5 25,20 31,23l-12 38c12,-6 21,-16 32,-22 11,5 22,16 33,22l-12 -37c7,-5 27,-18 31,-24l-39 0c-3,-10 -7,-30 -13,-37l-12 36zm115 98l-39 1c5,7 22,16 30,24l-11 37c12,-5 23,-18 33,-21 10,6 20,17 31,22l-11 -38c8,-7 27,-18 31,-24l-39 0 -12 -37c-4,5 -11,29 -13,36zm-574 99l-39 0c4,7 22,17 30,24l-11 37c9,-3 22,-16 32,-21 11,6 21,17 32,22l-11 -37c10,-9 23,-15 31,-24l-39 -1c-2,-6 -9,-32 -13,-37l-12 37zm0 394l-38 0c7,10 22,15 30,24l-11 37c10,-4 22,-15 32,-22 12,5 20,17 32,22l-11 -37c7,-7 26,-17 31,-24l-38 0 -13 -37c-6,10 -8,27 -13,37zm230 -394l-39 0c5,6 24,18 31,24l-12 38 33 -23c11,7 22,17 32,23l-11 -38c9,-7 27,-17 31,-24l-39 0 -12 -37c-6,7 -10,27 -13,36zm-344 -98l-39 0c4,5 25,20 31,24l-12 37c12,-5 21,-16 32,-21 11,6 21,16 32,22l-12 -38c5,-3 11,-7 16,-11 6,-4 12,-7 15,-12l-39 0 -12 -37c-6,7 -10,26 -13,36zm-115 98l-39 1c5,7 22,17 30,24l-11 37c12,-5 23,-18 33,-21 9,5 23,19 31,22l-11 -37c9,-8 26,-17 31,-24l-39 0 -13 -38 -13 37zm344 -98l-39 0c4,6 23,17 30,24l-11 38c12,-5 21,-16 32,-22 10,3 21,16 33,21l-11 -37c9,-8 26,-17 31,-24l-39 0c-2,-7 -4,-12 -6,-18 -3,-8 -3,-14 -7,-19l-12 37zm-230 393l-38 0 7 7c3,2 4,3 7,5 5,4 11,8 16,12l-11 37c12,-6 21,-17 33,-21 10,6 22,17 32,22l-11 -37c9,-10 24,-15 31,-24l-38 0 -12 -36c-3,3 -3,4 -4,8l-9 28zm804 98l-39 0c3,5 10,9 14,12l16 12 -11 37c12,-5 20,-16 33,-22 10,6 22,18 32,22l-11 -37c9,-10 24,-15 31,-24l-38 0c-5,-10 -8,-27 -13,-37l-12 37zm0 197l-38 0c3,6 24,17 30,24l-11 37c11,-5 22,-17 33,-22 9,6 22,17 32,22 -2,-12 -10,-27 -11,-38 5,-3 10,-7 15,-10l15 -12 -38 0 -13 -37c-5,9 -8,27 -13,37zm-114 -492l-39 1c7,8 21,16 31,24l-11 37c12,-5 21,-17 33,-21 9,6 22,17 31,21l-11 -37c9,-9 24,-16 31,-24 -56,0 -34,5 -51,-36 -1,1 -1,0 -2,3 -1,1 -1,3 -2,4 -1,3 -2,6 -3,10 -2,7 -4,12 -6,19zm-574 -295l-39 0c8,7 22,18 31,23l-12 38c11,-4 22,-17 32,-22 11,4 21,17 32,21l-11 -37c7,-4 27,-19 31,-24l-40 0c-3,-10 -8,-30 -13,-36l-12 36zm689 0l-40 0c4,5 25,20 31,24l-11 37c11,-4 22,-17 32,-21 10,5 21,17 32,22l-12 -38c9,-5 23,-16 32,-23l-40 0 -12 -37c-6,7 -10,27 -13,36zm0 197l-39 0c8,9 21,15 30,24l-11 37c12,-5 21,-16 33,-21 10,5 23,18 32,22l-11 -37c9,-7 27,-17 31,-24l-39 0 -12 -37 -13 37zm115 296l-39 0c7,10 22,14 30,24l-11 37c10,-4 22,-15 32,-22 11,5 20,16 32,22l-11 -37c7,-7 21,-15 26,-20 0,0 1,-1 2,-2 2,-2 0,0 2,-3l-38 0c-3,-7 -9,-31 -13,-36l-12 36zm0 -394l-39 0c2,5 25,20 31,23l-12 38c11,-5 21,-16 32,-22 12,6 21,16 32,22l-11 -37c6,-4 27,-19 31,-23l-39 0c-3,-10 -7,-29 -13,-36l-12 36zm115 491l-39 1c6,8 22,16 30,24l-11 37c11,-6 21,-15 32,-22 11,6 20,17 32,22l-11 -36c7,-7 26,-17 30,-24l-38 0 -12 -37 -13 37zm-459 0l-39 0c6,8 22,17 30,24l-11 37c10,-7 21,-15 32,-22 9,3 23,17 33,22l-12 -37c7,-7 27,-17 30,-24l-38 0c-2,-7 -4,-11 -6,-18l-5 -14c-3,-6 -1,-2 -3,-4l-12 36zm-574 -295l-39 0c9,9 21,15 31,24l-11 37c12,-5 21,-16 32,-21 11,6 21,17 32,22l-11 -37c10,-9 22,-15 31,-23l-40 -1 -12 -37c-6,7 -10,26 -13,36zm-115 98l-39 1c7,8 22,15 31,24l-11 37c12,-4 22,-18 33,-21 11,7 20,15 31,22l-11 -37c10,-9 23,-15 31,-24 -18,-1 -37,3 -41,-4 -4,-9 -6,-25 -11,-34l-12 37zm1148 -196l-39 0c5,7 22,16 30,24l-11 38c8,-3 23,-16 32,-22 10,3 21,16 33,21l-11 -37c9,-7 26,-17 31,-24l-39 0 -12 -38 -13 38zm-843 295c6,7 22,16 30,24l-11 37c11,-6 21,-15 32,-22 10,3 21,17 32,21l-11 -37c9,-9 23,-15 31,-24l-39 0 -12 -37c-16,35 -1,38 -30,37 -7,0 -15,0 -22,0zm37 -197l-37 0c7,9 22,15 31,24l-11 37c10,-4 22,-15 31,-21 12,4 20,16 33,21l-11 -37c10,-8 24,-16 31,-24l-39 0 -9 -28c0,-1 -1,-4 -2,-5 -2,-4 -1,-2 -3,-4 -3,8 -8,33 -14,36zm767 492c9,10 22,14 30,24l-11 37c6,-4 27,-20 33,-22 9,5 22,18 31,21l-11 -36c8,-9 24,-15 31,-24l-39 -1 -13 -38c-22,54 1,33 -52,38zm0 -394c8,9 21,15 31,24l-11 37c11,-6 21,-15 32,-22 11,3 21,17 32,21l-11 -37c9,-9 24,-16 31,-24l-39 0 -12 -37c-5,8 -8,23 -11,32 -3,9 -17,4 -41,5zm-1109 196l-38 0c4,8 23,18 30,24l-11 36c13,-5 21,-16 33,-22 11,7 21,16 31,22l-11 -37c9,-8 25,-17 31,-24l-39 0 -13 -38 -13 37zm1033 -295l-39 0c9,9 22,15 31,24l-11 37c11,-5 21,-16 32,-22 11,5 20,16 32,22l-11 -37c10,-9 22,-15 31,-24l-39 -1c-3,-10 -7,-29 -13,-36l-12 37zm-115 98l-39 0c9,9 22,15 31,24l-11 37c12,-5 21,-16 32,-21 10,5 22,18 32,22l-11 -37c8,-8 23,-16 31,-23l-39 -1c-3,-9 -9,-30 -13,-37l-12 37zm-689 0l-39 0c9,8 23,16 31,24l-11 37c10,-4 22,-16 32,-21 11,5 21,16 32,22l-11 -37c10,-9 22,-15 31,-24l-39 0 -12 -37c-4,7 -10,28 -13,37zm420 394c7,9 22,15 30,24l-11 37c11,-5 21,-15 32,-22 8,3 25,17 33,22 -2,-12 -10,-27 -11,-39 5,-2 27,-17 30,-22l-38 0c-3,-6 -4,-11 -6,-18 -2,-6 -4,-14 -8,-19 -15,50 -6,34 -51,37zm-653 -788l-37 0c5,7 22,16 30,24 0,10 -8,26 -10,37 12,-5 22,-17 32,-21 11,7 21,16 31,22 -2,-12 -10,-27 -11,-38 8,-7 26,-18 30,-24 -45,0 -38,5 -45,-18 -2,-7 -5,-13 -6,-20l-4 9c-2,7 -6,25 -12,28zm462 590l-38 0c4,8 23,17 30,24l-11 37c10,-5 24,-19 33,-22 11,7 22,15 31,22l-11 -37c9,-8 25,-16 31,-24l-38 0 -12 -36 -14 36zm574 99l-39 0c5,7 23,17 30,24l-11 37c12,-5 21,-15 32,-22 11,5 21,17 32,22l-11 -37c6,-6 20,-14 26,-20l4 -5 -38 0 -12 -37 -13 37zm-459 -394l-39 0c8,9 21,15 31,24l-11 37c10,-4 22,-16 32,-21 11,6 22,17 32,22l-11 -37c10,-9 23,-15 32,-24l-39 -1 -12 -37 -13 36zm-459 394l-39 0c5,8 23,16 30,24l-11 37c12,-5 21,-17 33,-21 12,6 20,16 32,22l-11 -37c5,-5 10,-8 16,-12 2,-2 5,-4 7,-5l8 -7 -38 0 -13 -37 -13 37zm230 0l-39 1c7,9 22,16 31,24l-11 36c10,-3 22,-15 31,-21 11,4 22,17 33,21l-11 -36c9,-9 22,-15 31,-24l-39 -1 -12 -37 -13 37zm229 -197l-38 0c2,4 0,1 3,4l12 9c4,3 12,8 15,12l-11 37 32 -22 32 22 -11 -37c4,-4 11,-9 16,-12l11 -8c4,-3 2,0 4,-4l-38 0 -10 -31c0,0 -1,-2 -1,-2l-1 -2c-4,5 -9,26 -13,35zm572 -492l-37 0c4,6 23,17 30,24 0,11 -9,26 -11,38 11,-6 21,-15 31,-22 11,4 21,16 32,21 -2,-12 -10,-27 -10,-37 8,-8 25,-17 30,-24 -48,0 -37,7 -48,-27l-5 -10c-2,6 -9,34 -14,37zm-917 787l-39 0c0,1 1,1 1,1 0,1 1,1 1,1 0,0 1,1 1,1l28 20c-1,12 -9,26 -11,38 10,-4 23,-16 32,-22 10,5 21,17 32,22l-11 -37c7,-8 25,-17 31,-24l-38 0c-5,-10 -8,-28 -13,-37l-13 37zm230 0l-38 0c3,5 8,7 15,12 5,4 10,8 15,10 -1,13 -9,27 -11,39 8,-5 25,-20 33,-22 11,6 21,16 32,22l-11 -37c9,-9 24,-15 31,-24 -44,-3 -36,14 -51,-37 -5,5 -9,26 -14,36zm115 -689l-39 0c6,6 24,19 31,23l-12 37c11,-4 22,-16 32,-21 10,5 22,18 32,21l-12 -37c7,-4 26,-18 31,-23l-39 -1 -12 -37 -13 37zm230 590l-39 0c9,9 22,15 31,24l-11 36c11,-4 22,-18 33,-21 9,5 21,17 31,21l-11 -36c9,-9 24,-16 31,-24l-39 -1 -12 -37 -13 37zm-804 98l-39 0c7,9 23,16 30,24l-11 36c9,-3 23,-15 31,-21 6,2 27,18 33,22l-11 -37c9,-10 22,-15 31,-24 -47,-5 -34,16 -51,-38l-13 37zm459 -393l-39 0c9,9 22,15 31,24l-11 38c8,-5 26,-19 33,-22 10,5 22,16 31,22l-11 -37c5,-5 11,-8 16,-12 2,-2 5,-4 7,-5l8 -7 -39 0 -12 -37c-4,4 -5,12 -7,17 -2,6 -4,13 -6,19zm344 98l-39 0c8,9 22,15 30,24l-11 37c12,-5 22,-18 33,-21 11,7 21,16 31,22l-11 -37c9,-8 25,-17 31,-24 -12,0 -29,2 -38,-1 -6,-9 -8,-26 -13,-36l-13 37zm-230 197l-37 2c0,0 1,1 1,1l28 21 -11 37c11,-5 22,-16 32,-22 10,6 21,17 32,22l-11 -37 31 -24 -38 0 -12 -36 -13 36z"/>
  </g>
 </g>
</svg>
