<svg xmlns="http://www.w3.org/2000/svg" xmlns:xlink="http://www.w3.org/1999/xlink" width="158" height="1073" viewBox="0 0 158 1073"><svg width="158" height="110" viewBox="0 0 10222 7181" shape-rendering="geometricPrecision" text-rendering="geometricPrecision" image-rendering="optimizeQuality" fill-rule="evenodd" clip-rule="evenodd" id="border-air" y="0"><defs><style>.fil1{fill:none}.fil0{fill:#a1a1a1;fill-rule:nonzero}</style></defs><g id="Слой_x0020_1"><g id="_1325345232"><path class="fil0" d="M538 1617h2341v92H538c-114 0-218 47-293 122s-122 179-122 293v4518c0 114 47 218 122 293s179 122 293 122h9141c114 0 218-47 293-122s122-179 122-293V2124c0-114-47-218-122-293s-179-122-293-122H7325v-92h2354c140 0 267 57 359 149s149 219 149 359v4518c0 140-57 267-149 359s-219 149-359 149H538c-140 0-267-57-359-149S30 6783 30 6643V2125c0-140 57-267 149-359s219-149 359-149z"></path><path class="fil0" d="M538 1592h2366v142H538c-53 0-103 11-149 30-48 20-91 49-127 85s-65 79-85 127c-19 46-30 96-30 149v4518c0 53 11 103 30 149 20 48 49 91 85 127 71 71 168 115 276 115h9141c53 0 103-11 149-30 48-20 91-49 127-85 71-71 115-168 115-276V2125c0-53-11-103-30-149-20-48-49-91-85-127s-79-65-127-85c-46-19-96-30-149-30H7300v-142h2379c72 0 140 14 203 41 65 27 124 67 173 116s89 108 116 173c26 63 41 131 41 203v4518c0 72-14 140-41 203-27 65-67 124-116 173s-108 89-173 116c-63 26-131 41-203 41H538c-72 0-140-14-203-41-65-27-124-67-173-116s-89-108-116-173c-26-63-41-131-41-203V2125c0-72 14-140 41-203 27-65 67-124 116-173s108-89 173-116c63-26 131-41 203-41zm2316 50H538c-65 0-127 13-184 37-59 25-112 61-157 105-45 45-81 98-105 157-24 57-37 119-37 184v4518c0 65 13 127 37 184 25 59 61 112 105 157 45 45 98 81 157 105 57 24 119 37 184 37h9141c65 0 127-13 184-37 59-25 112-61 157-105 45-45 81-98 105-157 24-57 37-119 37-184V2125c0-65-13-127-37-184-25-59-61-112-105-157-45-45-98-81-157-105-57-24-119-37-184-37H7350v42h2329c59 0 116 12 168 34 54 22 103 55 143 96 41 41 73 89 96 143 22 52 34 109 34 168v4518c0 121-50 231-129 311-41 41-89 73-143 96-52 22-109 34-168 34H539c-121 0-231-50-311-129-41-41-73-89-96-143-22-52-34-109-34-168V2126c0-59 12-116 34-168 22-54 55-102 96-143s89-73 143-96c52-22 109-34 168-34h2316v-42z"></path><path class="fil1" d="M3479 1653l-117 700h379l311-482 706 91-345 1289h537l824-1285c276-4 552-4 827 0 164-8 294-139 302-302 0-3 0-6-1-9-12-159-141-285-302-293-276 4-552 4-827 0L4949 77h-537l345 1289-706 91-311-482h-379l118 695-118-695"></path><path class="fil0" d="M3553 1666l-103 613h249l289-448 26-40 47 6 706 91 85 11-22 82-320 1195h399l802-1251 22-34 41-1c151-2 289-3 415-3 124 0 261 1 411 3 62-3 118-30 159-71s67-95 71-156v-4c-5-61-32-116-73-156s-96-65-157-68c-150 2-287 3-411 3-125 0-264-1-415-3l-41-1-22-34-802-1251h-399l320 1195 22 82-85 11-706 91-47 6-26-40-289-448h-249l103 608-28 5 28 5zm-265 675l114-681-114-675-15-87h509l22 35 286 443 574-74L4341 96l-25-94h676l22 35 803 1252c114 1 238 2 372 2 151 0 288-1 413-3h4c99 5 188 46 255 111s110 153 118 252v20c-5 101-48 192-114 259-67 67-158 110-259 114h-4c-125-2-262-3-413-3-134 0-259 1-372 2l-803 1252-22 35h-676l25-94 323-1206-574-74-286 443-22 35h-508l15-87z"></path></g></g></svg><svg width="158" height="110" viewBox="0 0 10222 6831" shape-rendering="geometricPrecision" text-rendering="geometricPrecision" image-rendering="optimizeQuality" fill-rule="evenodd" clip-rule="evenodd" id="border-car" y="110"><defs><style>.str0,.str1{stroke:#a1a1a1;stroke-width:50}.str1{stroke-width:150}.fil1{fill:none}.fil0{fill:#a1a1a1;fill-rule:nonzero}</style></defs><g id="Слой_x0020_1"><path class="fil0 str0" d="M541 1259h2341v92H541c-114 0-218 47-293 122s-122 179-122 293v4518c0 114 47 218 122 293s179 122 293 122h9141c114 0 218-47 293-122s122-179 122-293V1766c0-114-47-218-122-293s-179-122-293-122H7328v-92h2354c140 0 267 57 359 149s149 219 149 359v4518c0 140-57 267-149 359s-219 149-359 149H541c-140 0-267-57-359-149S33 6425 33 6285V1767c0-140 57-267 149-359s219-149 359-149z"></path><g id="_1325355216"><path class="fil1 str1" d="M3386 86h2186v1930h-987c6-25 9-51 9-78 0-184-149-333-333-333s-333 149-333 333c0 27 3 53 9 78h-553V86z"></path><path class="fil0" d="M5572 437h811l23 27c75 89 147 173 209 245 179 208 271 315 322 450 53 142 52 296 50 612 0 52-1 109-1 243v75h-490c23-45 36-96 37-150h304c0-50 1-112 1-169 2-298 3-443-40-559-41-108-127-209-295-404-52-60-111-129-187-220h-666v1352h219c0 54 13 105 37 150h-405V437h75z"></path><path class="fil1 str1" d="M6183 817h425c143 176 183 216 259 420l-684-5c-135-1-245-93-245-208 0-114 110-208 245-208zM4262 1605c184 0 333 149 333 333s-149 333-333 333-333-149-333-333 149-333 333-333zM6198 1605c184 0 333 149 333 333s-149 333-333 333-333-149-333-333 149-333 333-333z"></path></g></g></svg><svg width="158" height="110" viewBox="0 0 10222 7181" shape-rendering="geometricPrecision" text-rendering="geometricPrecision" image-rendering="optimizeQuality" fill-rule="evenodd" clip-rule="evenodd" id="border-customs" y="220"><defs><style>.str0,.str1{stroke:#a1a1a1;stroke-width:50}.str1{stroke-width:150}.fil1{fill:none}.fil0{fill:#a1a1a1;fill-rule:nonzero}</style></defs><g id="Слой_x0020_1"><path class="fil0 str0" d="M548 1609h2341v92H548c-114 0-218 47-293 122s-122 179-122 293v4518c0 114 47 218 122 293s179 122 293 122h9141c114 0 218-47 293-122s122-179 122-293V2116c0-114-47-218-122-293s-179-122-293-122H7335v-92h2354c140 0 267 57 359 149s149 219 149 359v4518c0 140-57 267-149 359s-219 149-359 149H548c-140 0-267-57-359-149S40 6775 40 6635V2117c0-140 57-267 149-359s219-149 359-149z"></path><g id="_820292048"><path class="fil1 str1" d="M5318 726c-3 181 91 349 247 440s349 91 505 0 251-260 247-440H5107l324-235-271-370 1184 88-26 517M5431 491h900"></path><path class="fil1 str1" d="M5020 3076h1587V1673c-19-221-139-337-360-351-286-12-573-12-859 0l-754 701-246-254h-640L3502 730l837 4 203 1037-155-2"></path><path class="fil1 str1" d="M3503 731l953-366 272 1254M3748 1770l708 753c91 53 181 53 272 0l287-267 5 873M6201 1321L5017 2666M6557 1492L5276 3076"></path></g></g></svg><svg width="158" height="110" viewBox="0 0 10222 7081" shape-rendering="geometricPrecision" text-rendering="geometricPrecision" image-rendering="optimizeQuality" fill-rule="evenodd" clip-rule="evenodd" id="border-weig" y="330"><defs><style>.str0,.str1,.str2{stroke:#a1a1a1;stroke-width:50}.str1,.str2{stroke-width:100}.str1{stroke-width:150}.fil1{fill:none}.fil0{fill:#a1a1a1;fill-rule:nonzero}</style></defs><g id="Слой_x0020_1"><path class="fil0 str0" d="M538 1523h2341v92H538c-114 0-218 47-293 122s-122 179-122 293v4518c0 114 47 218 122 293s179 122 293 122h9141c114 0 218-47 293-122s122-179 122-293V2030c0-114-47-218-122-293s-179-122-293-122H7325v-92h2354c140 0 267 57 359 149s149 219 149 359v4518c0 140-57 267-149 359s-219 149-359 149H538c-140 0-267-57-359-149S30 6689 30 6549V2031c0-140 57-267 149-359s219-149 359-149z"></path><g id="_1325344400"><path class="fil1 str1" d="M3817 813h269V422h-232c-97 0-177-80-177-177s80-177 177-177h918c97 0 177 80 177 177s-80 177-177 177h-172v391h349c112 0 203 91 203 203v1646c0 112-91 203-203 203H3743c-112 0-203-91-203-203V1090c0-152 125-277 277-277z"></path><path class="fil0 str0" d="M4108 2007l109-8c8 53 27 93 56 120s65 40 107 40c51 0 94-19 128-57 35-38 52-88 52-151 0-60-16-107-50-141-33-34-77-52-131-52-34 0-64 8-91 23s-48 35-63 60l-99-14 82-438h422v100h-339l-45 230c51-36 104-54 160-54 74 0 137 26 188 77 51 52 77 118 77 199 0 77-22 144-67 200-54 69-129 103-223 103-77 0-140-22-189-65s-77-101-84-173z"></path><path class="fil0 str2" d="M6115 2409h-69v-438c-17 16-38 32-65 47-27 16-51 28-72 35v-66c38-18 72-40 101-66s49-51 61-75h44v562z"></path><path class="fil1 str1" d="M5664 1415h192v-279h-166c-70 0-126-57-126-126 0-70 57-126 126-126h656c70 0 126 57 126 126 0 70-57 126-126 126h-123v279h249c80 0 145 65 145 145v1176c0 80-65 145-145 145h-861c-80 0-145-65-145-145V1613c0-109 89-198 198-198z"></path></g></g></svg><svg width="24" height="20" viewBox="0 0 2722 2231" shape-rendering="geometricPrecision" text-rendering="geometricPrecision" image-rendering="optimizeQuality" fill-rule="evenodd" clip-rule="evenodd" id="fiol-balance" y="440"><defs><style>.fil0,.fil1{fill:#323044}.fil0{fill-rule:nonzero}</style></defs><g id="Слой_x0020_1"><path d="M453 2h1817c123 0 234 50 315 131s131 192 131 315v1335c0 123-50 234-131 315s-192 131-315 131H453c-123 0-234-50-315-131S7 1906 7 1783V448c0-123 50-234 131-315S330 2 453 2zm1817 150H453c-81 0-155 33-209 87s-87 128-87 209v1335c0 81 33 155 87 209s128 87 209 87h1817c81 0 155-33 209-87s87-128 87-209V448c0-81-33-155-87-209s-128-87-209-87z"></path><path d="M453 8h1486c242 0 440 198 440 440v245h-138V448c0-166-136-302-302-302H453c-166 0-302 136-302 302v1335c0 166 136 302 302 302h1486c166 0 302-136 302-302v-260h138v260c0 242-198 440-440 440H453c-242 0-440-198-440-440V448C13 206 211 8 453 8z"></path><path d="M1941 693h769v831h-769c-114 0-218-47-293-122s-122-179-122-293 47-218 122-294c75-75 179-122 293-122zm631 138h-631c-76 0-145 31-196 81-50 50-81 119-81 196 0 76 31 145 81 196 50 50 119 81 196 81h631V831z"></path><path d="M1952 1015c48 0 87 39 87 87s-39 87-87 87-87-39-87-87 39-87 87-87z"></path></g></svg><svg width="24" height="20" viewBox="0 0 2522 3131" shape-rendering="geometricPrecision" text-rendering="geometricPrecision" image-rendering="optimizeQuality" fill-rule="evenodd" clip-rule="evenodd" id="fiol-exit" y="460"><defs><style>.fil0{fill:#323044;fill-rule:nonzero}</style></defs><g id="Слой_x0020_1"><path d="M435 18h1457c58 0 114 12 166 33 53 22 101 54 141 94s72 88 94 141c21 51 33 107 33 166v677l-42-38-107-96-8-7V452c0-37-7-73-21-106-14-34-35-64-60-90-26-26-56-46-90-60-33-14-68-21-106-21H435c-37 0-73 7-106 21-34 14-64 35-90 60-26 26-46 56-60 90-14 33-21 68-21 106v2235c0 37 7 73 21 106 14 34 35 65 60 90 26 26 56 46 90 60 33 14 68 21 106 21h1457c37 0 73-7 106-21 34-14 64-35 90-60 26-26 46-56 60-90 14-33 21-68 21-106v-615l8-7 107-96 42-38v756c0 58-12 114-33 166-22 53-54 101-94 141s-88 72-141 94c-51 21-107 33-166 33H435c-58 0-114-12-166-33-53-22-101-54-141-94s-72-88-94-141c-21-51-33-107-33-166V452c0-58 12-114 33-166 22-53 54-101 94-141s88-72 141-94c51-21 107-33 166-33z"></path><path d="M801 1841h854v292l668-603-668-603v292H801v622zm704 150H651v-922h854V590l125 113 854 772 61 55-61 55-854 772-125 113v-479z"></path></g></svg><svg width="24" height="20" viewBox="0 0 2522 2381" shape-rendering="geometricPrecision" text-rendering="geometricPrecision" image-rendering="optimizeQuality" fill-rule="evenodd" clip-rule="evenodd" id="fiol-korobka" y="480"><defs><style>.str0{stroke:#323044;stroke-width:150}.fil0{fill:none}</style></defs><g id="Слой_x0020_1"><path class="fil0 str0" d="M196 732h2138v1558H196zM85 78h2362v644H85z"></path><path class="fil0 str0" d="M861 967h800c70 0 127 57 127 127s-57 127-127 127H861c-70 0-127-57-127-127s57-127 127-127z"></path></g></svg><svg width="24" height="20" viewBox="0 0 2322 2431" shape-rendering="geometricPrecision" text-rendering="geometricPrecision" image-rendering="optimizeQuality" fill-rule="evenodd" clip-rule="evenodd" id="fiol-profile" y="500"><defs><style>.str0{stroke:#323044;stroke-width:150}.fil0{fill:none}</style></defs><path class="fil0 str0" d="M1237 2341H89c-43-246 36-443 235-593 212-109 401-231 585-357C567 1249 303 91 1163 91c861 0 591 1158 250 1300 184 126 373 248 585 357 200 150 278 347 235 593H1085" id="Слой_x0020_1"></path></svg><svg width="27" height="18" viewBox="0 0 3122 1781" shape-rendering="geometricPrecision" text-rendering="geometricPrecision" image-rendering="optimizeQuality" fill-rule="evenodd" clip-rule="evenodd" id="flag" y="520"><defs><style>.fil1{fill:#323044}.fil0{fill:#f86957}</style></defs><g id="Слой_x0020_1"><g id="_1313318800"><path class="fil0" d="M0 1533h3130v-141H0zM0 1813h3130v-140H0zM0 1252h3130v-140H0zM0 972h3130V832H1385v140zM1385 411h1745V271H1385zM1385 131h1745V-9H1385zM1385 692h1745V551H1385z"></path><path class="fil1" d="M1385 972H0V-10h1385v982zM795 464l-38 2c7 6 23 16 29 22l-11 37c10-6 22-16 32-22 7 3 25 17 33 22l-12-37c9-9 23-15 31-24h-39l-6-18c-2-6-4-14-7-18l-12 37zm0-197h-39c4 7 22 17 30 24l-11 38c10-5 21-16 32-22l33 22-12-38c8-6 26-17 31-24h-39c-3-10-7-30-13-36l-12 37zM566 70h-39c5 6 24 19 31 24l-12 38c11-5 22-17 33-22 11 5 19 16 32 22l-12-38c6-4 28-18 31-23h-39l-13-37c-6 7-10 27-13 36zm229 0h-39c3 5 25 20 31 23l-12 38c12-6 21-16 32-22 11 5 22 16 33 22l-12-37c7-5 27-18 31-24h-39c-3-10-7-30-13-37l-12 36zm115 98l-39 1c5 7 22 16 30 24l-11 37c12-5 23-18 33-21 10 6 20 17 31 22l-11-38c8-7 27-18 31-24h-39l-12-37c-4 5-11 29-13 36zm-574 99h-39c4 7 22 17 30 24l-11 37c9-3 22-16 32-21 11 6 21 17 32 22l-11-37c10-9 23-15 31-24l-39-1c-2-6-9-32-13-37l-12 37zm0 394h-38c7 10 22 15 30 24l-11 37c10-4 22-15 32-22 12 5 20 17 32 22l-11-37c7-7 26-17 31-24h-38l-13-37c-6 10-8 27-13 37zm230-394h-39c5 6 24 18 31 24l-12 38 33-23c11 7 22 17 32 23l-11-38c9-7 27-17 31-24h-39l-12-37c-6 7-10 27-13 36zm-344-98h-39c4 5 25 20 31 24l-12 37c12-5 21-16 32-21 11 6 21 16 32 22l-12-38c5-3 11-7 16-11 6-4 12-7 15-12h-39l-12-37c-6 7-10 26-13 36zm-115 98l-39 1c5 7 22 17 30 24l-11 37c12-5 23-18 33-21 9 5 23 19 31 22l-11-37c9-8 26-17 31-24h-39l-13-38-13 37zm344-98h-39c4 6 23 17 30 24l-11 38c12-5 21-16 32-22 10 3 21 16 33 21l-11-37c9-8 26-17 31-24h-39c-2-7-4-12-6-18-3-8-3-14-7-19l-12 37zM221 562h-38l7 7c3 2 4 3 7 5 5 4 11 8 16 12l-11 37c12-6 21-17 33-21 10 6 22 17 32 22l-11-37c9-10 24-15 31-24h-38l-12-36c-3 3-3 4-4 8l-9 28zm804 98h-39c3 5 10 9 14 12l16 12-11 37c12-5 20-16 33-22 10 6 22 18 32 22l-11-37c9-10 24-15 31-24h-38c-5-10-8-27-13-37l-12 37zm0 197h-38c3 6 24 17 30 24l-11 37c11-5 22-17 33-22 9 6 22 17 32 22-2-12-10-27-11-38 5-3 10-7 15-10l15-12h-38l-13-37c-5 9-8 27-13 37zM911 365l-39 1c7 8 21 16 31 24l-11 37c12-5 21-17 33-21 9 6 22 17 31 21l-11-37c9-9 24-16 31-24-56 0-34 5-51-36-1 1-1 0-2 3-1 1-1 3-2 4-1 3-2 6-3 10-2 7-4 12-6 19zM337 70h-39c8 7 22 18 31 23l-12 38c11-4 22-17 32-22 11 4 21 17 32 21l-11-37c7-4 27-19 31-24h-40c-3-10-8-30-13-36l-12 36zm689 0h-40c4 5 25 20 31 24l-11 37c11-4 22-17 32-21 10 5 21 17 32 22l-12-38c9-5 23-16 32-23h-40l-12-37c-6 7-10 27-13 36zm0 197h-39c8 9 21 15 30 24l-11 37c12-5 21-16 33-21 10 5 23 18 32 22l-11-37c9-7 27-17 31-24h-39l-12-37-13 37zm115 296h-39c7 10 22 14 30 24l-11 37c10-4 22-15 32-22 11 5 20 16 32 22l-11-37c7-7 21-15 26-20l2-2c2-2 0 0 2-3h-38c-3-7-9-31-13-36l-12 36zm0-394h-39c2 5 25 20 31 23l-12 38c11-5 21-16 32-22 12 6 21 16 32 22l-11-37c6-4 27-19 31-23h-39c-3-10-7-29-13-36l-12 36zm115 491l-39 1c6 8 22 16 30 24l-11 37c11-6 21-15 32-22 11 6 20 17 32 22l-11-36c7-7 26-17 30-24h-38l-12-37-13 37zm-459 0h-39c6 8 22 17 30 24l-11 37c10-7 21-15 32-22 9 3 23 17 33 22l-12-37c7-7 27-17 30-24h-38c-2-7-4-11-6-18l-5-14c-3-6-1-2-3-4l-12 36zM223 365h-39c9 9 21 15 31 24l-11 37c12-5 21-16 32-21 11 6 21 17 32 22l-11-37c10-9 22-15 31-23l-40-1-12-37c-6 7-10 26-13 36zm-115 98l-39 1c7 8 22 15 31 24l-11 37c12-4 22-18 33-21 11 7 20 15 31 22l-11-37c10-9 23-15 31-24-18-1-37 3-41-4-4-9-6-25-11-34l-12 37zm1148-196h-39c5 7 22 16 30 24l-11 38c8-3 23-16 32-22 10 3 21 16 33 21l-11-37c9-7 26-17 31-24h-39l-12-38-13 38zM413 562c6 7 22 16 30 24l-11 37c11-6 21-15 32-22 10 3 21 17 32 21l-11-37c9-9 23-15 31-24h-39l-12-37c-16 35-1 38-30 37h-22zm37-197h-37c7 9 22 15 31 24l-11 37c10-4 22-15 31-21 12 4 20 16 33 21l-11-37c10-8 24-16 31-24h-39l-9-28c0-1-1-4-2-5-2-4-1-2-3-4-3 8-8 33-14 36zm767 492c9 10 22 14 30 24l-11 37c6-4 27-20 33-22 9 5 22 18 31 21l-11-36c8-9 24-15 31-24l-39-1-13-38c-22 54 1 33-52 38zm0-394c8 9 21 15 31 24l-11 37c11-6 21-15 32-22 11 3 21 17 32 21l-11-37c9-9 24-16 31-24h-39l-12-37c-5 8-8 23-11 32s-17 4-41 5zM108 659H70c4 8 23 18 30 24l-11 36c13-5 21-16 33-22 11 7 21 16 31 22l-11-37c9-8 25-17 31-24h-39l-13-38-13 37zm1033-295h-39c9 9 22 15 31 24l-11 37c11-5 21-16 32-22 11 5 20 16 32 22l-11-37c10-9 22-15 31-24l-39-1c-3-10-7-29-13-36l-12 37zm-115 98h-39c9 9 22 15 31 24l-11 37c12-5 21-16 32-21 10 5 22 18 32 22l-11-37c8-8 23-16 31-23l-39-1c-3-9-9-30-13-37l-12 37zm-689 0h-39c9 8 23 16 31 24l-11 37c10-4 22-16 32-21 11 5 21 16 32 22l-11-37c10-9 22-15 31-24h-39l-12-37c-4 7-10 28-13 37zm420 394c7 9 22 15 30 24l-11 37c11-5 21-15 32-22 8 3 25 17 33 22-2-12-10-27-11-39 5-2 27-17 30-22h-38c-3-6-4-11-6-18-2-6-4-14-8-19-15 50-6 34-51 37zM104 68H67c5 7 22 16 30 24 0 10-8 26-10 37 12-5 22-17 32-21 11 7 21 16 31 22-2-12-10-27-11-38 8-7 26-18 30-24-45 0-38 5-45-18-2-7-5-13-6-20l-4 9c-2 7-6 25-12 28zm462 590h-38c4 8 23 17 30 24l-11 37c10-5 24-19 33-22 11 7 22 15 31 22l-11-37c9-8 25-16 31-24h-38l-12-36-14 36zm574 99h-39c5 7 23 17 30 24l-11 37c12-5 21-15 32-22 11 5 21 17 32 22l-11-37c6-6 20-14 26-20l4-5h-38l-12-37-13 37zM681 363h-39c8 9 21 15 31 24l-11 37c10-4 22-16 32-21 11 6 22 17 32 22l-11-37c10-9 23-15 32-24l-39-1-12-37-13 36zM222 757h-39c5 8 23 16 30 24l-11 37c12-5 21-17 33-21 12 6 20 16 32 22l-11-37c5-5 10-8 16-12 2-2 5-4 7-5l8-7h-38l-13-37-13 37zm230 0l-39 1c7 9 22 16 31 24l-11 36c10-3 22-15 31-21 11 4 22 17 33 21l-11-36c9-9 22-15 31-24l-39-1-12-37-13 37zm229-197h-38c2 4 0 1 3 4l12 9c4 3 12 8 15 12l-11 37 32-22 32 22-11-37c4-4 11-9 16-12l11-8c4-3 2 0 4-4h-38l-10-31-1-2-1-2c-4 5-9 26-13 35zm572-492h-37c4 6 23 17 30 24 0 11-9 26-11 38 11-6 21-15 31-22 11 4 21 16 32 21-2-12-10-27-10-37 8-8 25-17 30-24-48 0-37 7-48-27l-5-10c-2 6-9 34-14 37zM336 855h-39c0 1 1 1 1 1 0 1 1 1 1 1l1 1 28 20c-1 12-9 26-11 38 10-4 23-16 32-22 10 5 21 17 32 22l-11-37c7-8 25-17 31-24h-38c-5-10-8-28-13-37l-13 37zm230 0h-38c3 5 8 7 15 12 5 4 10 8 15 10-1 13-9 27-11 39 8-5 25-20 33-22 11 6 21 16 32 22l-11-37c9-9 24-15 31-24-44-3-36 14-51-37-5 5-9 26-14 36zm115-689h-39c6 6 24 19 31 23l-12 37c11-4 22-16 32-21 10 5 22 18 32 21l-12-37c7-4 26-18 31-23l-39-1-12-37-13 37zm230 590h-39c9 9 22 15 31 24l-11 36c11-4 22-18 33-21 9 5 21 17 31 21l-11-36c9-9 24-16 31-24l-39-1-12-37-13 37zm-804 98H68c7 9 23 16 30 24l-11 36c9-3 23-15 31-21 6 2 27 18 33 22l-11-37c9-10 22-15 31-24-47-5-34 16-51-38l-13 37zm459-393h-39c9 9 22 15 31 24l-11 38c8-5 26-19 33-22 10 5 22 16 31 22l-11-37c5-5 11-8 16-12 2-2 5-4 7-5l8-7h-39l-12-37c-4 4-5 12-7 17-2 6-4 13-6 19zm344 98h-39c8 9 22 15 30 24l-11 37c12-5 22-18 33-21 11 7 21 16 31 22l-11-37c9-8 25-17 31-24-12 0-29 2-38-1-6-9-8-26-13-36l-13 37zM680 756l-37 2 1 1 28 21-11 37c11-5 22-16 32-22 10 6 21 17 32 22l-11-37 31-24h-38l-12-36-13 36z"></path></g></g></svg><svg width="24" height="20" viewBox="0 0 2722 2231" shape-rendering="geometricPrecision" text-rendering="geometricPrecision" image-rendering="optimizeQuality" fill-rule="evenodd" clip-rule="evenodd" id="orange-balance" y="538"><defs><style>.fil0,.fil1{fill:#f76451}.fil0{fill-rule:nonzero}</style></defs><g id="Слой_x0020_1"><path class="fil0" d="M453 2h1817c123 0 234 50 315 131s131 192 131 315v1335c0 123-50 234-131 315s-192 131-315 131H453c-123 0-234-50-315-131S7 1906 7 1783V448c0-123 50-234 131-315S330 2 453 2zm1817 150H453c-81 0-155 33-209 87s-87 128-87 209v1335c0 81 33 155 87 209s128 87 209 87h1817c81 0 155-33 209-87s87-128 87-209V448c0-81-33-155-87-209s-128-87-209-87z"></path><path class="fil0" d="M453 8h1486c242 0 440 198 440 440v245h-138V448c0-166-136-302-302-302H453c-166 0-302 136-302 302v1335c0 166 136 302 302 302h1486c166 0 302-136 302-302v-260h138v260c0 242-198 440-440 440H453c-242 0-440-198-440-440V448C13 206 211 8 453 8z"></path><path class="fil0" d="M1941 693h769v831h-769c-114 0-218-47-293-122s-122-179-122-293 47-218 122-294c75-75 179-122 293-122zm631 138h-631c-76 0-145 31-196 81-50 50-81 119-81 196 0 76 31 145 81 196 50 50 119 81 196 81h631V831z"></path><path class="fil1" d="M1952 1015c48 0 87 39 87 87s-39 87-87 87-87-39-87-87 39-87 87-87z"></path></g></svg><svg width="24" height="20" viewBox="0 0 2522 3131" shape-rendering="geometricPrecision" text-rendering="geometricPrecision" image-rendering="optimizeQuality" fill-rule="evenodd" clip-rule="evenodd" id="orange-exit" y="558"><defs><style>.fil0{fill:#f76451;fill-rule:nonzero}</style></defs><g id="Слой_x0020_1"><path class="fil0" d="M435 18h1457c58 0 114 12 166 33 53 22 101 54 141 94s72 88 94 141c21 51 33 107 33 166v677l-42-38-107-96-8-7V452c0-37-7-73-21-106-14-34-35-64-60-90-26-26-56-46-90-60-33-14-68-21-106-21H435c-37 0-73 7-106 21-34 14-64 35-90 60-26 26-46 56-60 90-14 33-21 68-21 106v2235c0 37 7 73 21 106 14 34 35 65 60 90 26 26 56 46 90 60 33 14 68 21 106 21h1457c37 0 73-7 106-21 34-14 64-35 90-60 26-26 46-56 60-90 14-33 21-68 21-106v-615l8-7 107-96 42-38v756c0 58-12 114-33 166-22 53-54 101-94 141s-88 72-141 94c-51 21-107 33-166 33H435c-58 0-114-12-166-33-53-22-101-54-141-94s-72-88-94-141c-21-51-33-107-33-166V452c0-58 12-114 33-166 22-53 54-101 94-141s88-72 141-94c51-21 107-33 166-33z"></path><path class="fil0" d="M801 1841h854v292l668-603-668-603v292H801v622zm704 150H651v-922h854V590l125 113 854 772 61 55-61 55-854 772-125 113v-479z"></path></g></svg><svg width="24" height="20" viewBox="0 0 2522 2381" shape-rendering="geometricPrecision" text-rendering="geometricPrecision" image-rendering="optimizeQuality" fill-rule="evenodd" clip-rule="evenodd" id="orange-korobka" y="578"><defs><style>.str0{stroke:#f76451;stroke-width:150}.fil0{fill:none}</style></defs><g id="Слой_x0020_1"><path class="fil0 str0" d="M196 742h2138v1558H196zM85 88h2362v644H85z"></path><path class="fil0 str0" d="M861 977h800c70 0 127 57 127 127s-57 127-127 127H861c-70 0-127-57-127-127s57-127 127-127z"></path></g></svg><svg width="24" height="20" viewBox="0 0 2322 2431" shape-rendering="geometricPrecision" text-rendering="geometricPrecision" image-rendering="optimizeQuality" fill-rule="evenodd" clip-rule="evenodd" id="orange-profile" y="598"><defs><style>.str0{stroke:#f76451;stroke-width:150}.fil0{fill:none}</style></defs><path class="fil0 str0" d="M1237 2341H89c-43-246 36-443 235-593 212-109 401-231 585-357C567 1249 303 91 1163 91c861 0 591 1158 250 1300 184 126 373 248 585 357 200 150 278 347 235 593H1085" id="Слой_x0020_1"></path></svg><svg width="26" height="28" viewBox="0 0 2522 3131" shape-rendering="geometricPrecision" text-rendering="geometricPrecision" image-rendering="optimizeQuality" fill-rule="evenodd" clip-rule="evenodd" id="white-exit" y="618"><defs><style>.fil0{fill:#fff;fill-rule:nonzero}</style></defs><g id="Слой_x0020_1"><path class="fil0" d="M435 18h1457c58 0 114 12 166 33 53 22 101 54 141 94s72 88 94 141c21 51 33 107 33 166v677l-42-38-107-96-8-7V452c0-37-7-73-21-106-14-34-35-64-60-90-26-26-56-46-90-60-33-14-68-21-106-21H435c-37 0-73 7-106 21-34 14-64 35-90 60-26 26-46 56-60 90-14 33-21 68-21 106v2235c0 37 7 73 21 106 14 34 35 65 60 90 26 26 56 46 90 60 33 14 68 21 106 21h1457c37 0 73-7 106-21 34-14 64-35 90-60 26-26 46-56 60-90 14-33 21-68 21-106v-615l8-7 107-96 42-38v756c0 58-12 114-33 166-22 53-54 101-94 141s-88 72-141 94c-51 21-107 33-166 33H435c-58 0-114-12-166-33-53-22-101-54-141-94s-72-88-94-141c-21-51-33-107-33-166V452c0-58 12-114 33-166 22-53 54-101 94-141s88-72 141-94c51-21 107-33 166-33z"></path><path class="fil0" d="M801 1841h854v292l668-603-668-603v292H801v622zm704 150H651v-922h854V590l125 113 854 772 61 55-61 55-854 772-125 113v-479z"></path></g></svg><svg width="24" height="20" viewBox="0 0 2322 2431" shape-rendering="geometricPrecision" text-rendering="geometricPrecision" image-rendering="optimizeQuality" fill-rule="evenodd" clip-rule="evenodd" id="white-profile" y="646"><defs><style>.str0{stroke:#fff;stroke-width:150}.fil0{fill:none}</style></defs><path class="fil0 str0" d="M1237 2351H89c-43-246 36-443 235-593 212-109 401-231 585-357-342-142-606-1300 254-1300 861 0 591 1158 250 1300 184 126 373 248 585 357 200 150 278 347 235 593H1085" id="Слой_x0020_1"></path></svg><svg width="97.225" height="97.557" viewBox="0 0 2572 2581" shape-rendering="geometricPrecision" text-rendering="geometricPrecision" image-rendering="optimizeQuality" fill-rule="evenodd" clip-rule="evenodd" id="фиол круг для языков" y="666"><defs><style>.str0{stroke:#323044;stroke-width:150}.fil0{fill:none}</style></defs><path class="fil0 str0" d="M1286 92c662 0 1198 536 1198 1198s-536 1198-1198 1198S88 1952 88 1290 624 92 1286 92z" id="Слой_x0020_1"></path></svg><svg width="85.886" height="89.998" viewBox="0 0 2272 2381" shape-rendering="geometricPrecision" text-rendering="geometricPrecision" image-rendering="optimizeQuality" fill-rule="evenodd" clip-rule="evenodd" id="фиолетовая лупа" y="764"><defs><style>.fil0{fill:#323044;fill-rule:nonzero}</style></defs><path class="fil0" d="M952-5c257 0 490 104 658 273 168 168 273 401 273 658s-104 490-273 658l-13 13 659 666c27 27 27 71 0 98s-71 27-98 0l-668-675c-152 108-337 171-537 171-257 0-490-104-658-273-168-168-273-401-273-658s104-490 273-658C463 100 696-5 953-5zm552 379c-141-141-336-229-552-229-215 0-411 87-552 229-141 141-229 336-229 552s87 411 229 552c141 141 336 229 552 229s411-87 552-229c141-141 229-336 229-552s-87-411-229-552z" id="Слой_x0020_1"></path></svg><svg width="97.225" height="97.557" viewBox="0 0 2572 2581" shape-rendering="geometricPrecision" text-rendering="geometricPrecision" image-rendering="optimizeQuality" fill-rule="evenodd" clip-rule="evenodd" id="фиолетовый вопрос" y="854"><defs><style>.fil2{fill:none}.fil0,.fil1{fill:#323044}.fil0{fill-rule:nonzero}</style></defs><g id="Слой_x0020_1"><g id="_840632992"><path class="fil0" d="M1286 17c352 0 670 143 900 373s373 549 373 900c0 352-143 670-373 900s-549 373-900 373c-352 0-670-143-900-373S13 1641 13 1290c0-352 143-670 373-900S935 17 1286 17zm794 479c-203-203-484-329-794-329S695 293 492 496s-329 484-329 794 126 591 329 794 484 329 794 329 591-126 794-329 329-484 329-794-126-591-329-794z"></path><path class="fil1" d="M1220 2016h122v-142h-122z"></path><path class="fil2" d="M897 1051c-27-154 40-309 170-395 131-86 300-86 430 0 131 86 198 241 170 395-22 94-78 177-158 232-104 68-181 171-216 290-8 48-13 97-15 146"></path><path class="fil0" d="M823 1064c-16-92-4-184 31-266s94-154 172-205 167-77 256-77 178 26 256 77 137 123 172 205 47 174 31 266l-1 4c-13 55-37 108-69 155s-72 88-119 121l-2 1c-45 29-83 66-114 108-30 41-54 87-69 136-4 22-7 43-9 64-2 23-4 46-4 68l-149-4c1-27 2-53 5-79 3-27 6-53 10-78l1-4 1-5c20-68 52-132 94-188 41-55 92-104 151-143 32-23 60-51 81-82s37-66 46-104c10-61 2-123-22-178-24-56-64-105-117-139-53-35-113-52-174-52s-122 17-174 52c-53 35-92 83-117 139-24 56-32 118-21 181l-148 26z"></path></g></g></svg><svg width="119.902" height="120.234" viewBox="0 0 3172 3181" shape-rendering="geometricPrecision" text-rendering="geometricPrecision" image-rendering="optimizeQuality" fill-rule="evenodd" clip-rule="evenodd" id="фиолетовый инфа" y="952"><defs><style>.fil0,.fil1{fill:#323044}.fil1{fill-rule:nonzero}</style></defs><g id="Слой_x0020_1"><path class="fil0" d="M1460 2549h247c8-31 4-1346 3-1400l-253-2c-3 127-5 1378 3 1402zM1429 693c4 22-7 56-4 85 22 179 302 170 311-10 2-38-9-60-9-87l-15-19c-70-97-200-84-258-5l-22 33c0-1-2 2-3 3z"></path><path class="fil1" d="M1588-11c439 0 836 178 1124 466s466 685 466 1124-178 836-466 1124-685 466-1124 466-836-178-1124-466S-2 2018-2 1579 176 743 464 455 1149-11 1588-11zm1018 572c-260-260-620-422-1018-422S831 300 570 561c-260 261-422 620-422 1018s161 757 422 1018c260 260 620 422 1018 422s757-161 1018-422c260-260 422-620 422-1018s-161-757-422-1018z"></path></g></svg></svg>