<?xml version="1.0" encoding="UTF-8"?>
<!DOCTYPE svg PUBLIC "-//W3C//DTD SVG 1.1//EN" "http://www.w3.org/Graphics/SVG/1.1/DTD/svg11.dtd">
<!-- Creator: CorelDRAW X6 -->
<svg xmlns="http://www.w3.org/2000/svg" xml:space="preserve" width="22.724mm" height="23.812mm" version="1.1" style="shape-rendering:geometricPrecision; text-rendering:geometricPrecision; image-rendering:optimizeQuality; fill-rule:evenodd; clip-rule:evenodd"
viewBox="0 0 2272 2381"
 xmlns:xlink="http://www.w3.org/1999/xlink">
 <defs>
  <style type="text/css">
   <![CDATA[
    .fil0 {fill:#323044;fill-rule:nonzero}
   ]]>
  </style>
 </defs>
 <g id="Слой_x0020_1">
  <metadata id="CorelCorpID_0Corel-Layer"/>
  <path class="fil0" d="M952 -5c257,0 490,104 658,273 168,168 273,401 273,658 0,257 -104,490 -273,658 -4,4 -9,9 -13,13l659 666c27,27 27,71 0,98l0 0c-27,27 -71,27 -98,0l-668 -675c-152,108 -337,171 -537,171 -257,0 -490,-104 -658,-273 -168,-168 -273,-401 -273,-658 0,-257 104,-490 273,-658 168,-168 401,-273 658,-273zm552 379c-141,-141 -336,-229 -552,-229 -215,0 -411,87 -552,229 -141,141 -229,336 -229,552 0,216 87,411 229,552 141,141 336,229 552,229 216,0 411,-87 552,-229 141,-141 229,-336 229,-552 0,-216 -87,-411 -229,-552z"/>
 </g>
</svg>
