<?xml version="1.0" encoding="UTF-8"?>
<!DOCTYPE svg PUBLIC "-//W3C//DTD SVG 1.1//EN" "http://www.w3.org/Graphics/SVG/1.1/DTD/svg11.dtd">
<!-- Creator: CorelDRAW X6 -->
<svg xmlns="http://www.w3.org/2000/svg" xml:space="preserve" width="25.724mm" height="25.812mm" version="1.1" style="shape-rendering:geometricPrecision; text-rendering:geometricPrecision; image-rendering:optimizeQuality; fill-rule:evenodd; clip-rule:evenodd"
viewBox="0 0 2572 2581"
 xmlns:xlink="http://www.w3.org/1999/xlink">
 <defs>
  <style type="text/css">
   <![CDATA[
    .fil2 {fill:none}
    .fil1 {fill:#323044}
    .fil0 {fill:#323044;fill-rule:nonzero}
   ]]>
  </style>
 </defs>
 <g id="Слой_x0020_1">
  <metadata id="CorelCorpID_0Corel-Layer"/>
  <g id="_840632992">
   <path class="fil0" d="M1286 17c352,0 670,143 900,373 230,230 373,549 373,900 0,352 -143,670 -373,900 -230,230 -549,373 -900,373 -352,0 -670,-143 -900,-373 -230,-230 -373,-549 -373,-900 0,-352 143,-670 373,-900 230,-230 549,-373 900,-373zm794 479c-203,-203 -484,-329 -794,-329 -310,0 -591,126 -794,329 -203,203 -329,484 -329,794 0,310 126,591 329,794 203,203 484,329 794,329 310,0 591,-126 794,-329 203,-203 329,-484 329,-794 0,-310 -126,-591 -329,-794z"/>
   <polygon class="fil1" points="1220,2016 1342,2016 1342,1874 1220,1874 "/>
   <path class="fil2" d="M897 1051c-27,-154 40,-309 170,-395 131,-86 300,-86 430,0 131,86 198,241 170,395 -22,94 -78,177 -158,232 -104,68 -181,171 -216,290 -8,48 -13,97 -15,146"/>
   <path class="fil0" d="M823 1064c-16,-92 -4,-184 31,-266 35,-82 94,-154 172,-205 78,-51 167,-77 256,-77 89,0 178,26 256,77 78,51 137,123 172,205 35,82 47,174 31,266l-1 4c-13,55 -37,108 -69,155 -32,47 -72,88 -119,121l-2 1c-45,29 -83,66 -114,108 -30,41 -54,87 -69,136 -4,22 -7,43 -9,64 -2,23 -4,46 -4,68l-149 -4c1,-27 2,-53 5,-79 3,-27 6,-53 10,-78l1 -4 1 -5c20,-68 52,-132 94,-188 41,-55 92,-104 151,-143l0 0c32,-23 60,-51 81,-82 21,-31 37,-66 46,-104 10,-61 2,-123 -22,-178 -24,-56 -64,-105 -117,-139 -53,-35 -113,-52 -174,-52 -61,0 -122,17 -174,52 -53,35 -92,83 -117,139 -24,56 -32,118 -21,181l-148 26z"/>
  </g>
 </g>
</svg>
