<?xml version="1.0" encoding="UTF-8"?>
<!DOCTYPE svg PUBLIC "-//W3C//DTD SVG 1.1//EN" "http://www.w3.org/Graphics/SVG/1.1/DTD/svg11.dtd">
<!-- Creator: CorelDRAW X6 -->
<svg xmlns="http://www.w3.org/2000/svg" xml:space="preserve" width="25.5mm" height="32mm" version="1.1" style="shape-rendering:geometricPrecision; text-rendering:geometricPrecision; image-rendering:optimizeQuality; fill-rule:evenodd; clip-rule:evenodd"
viewBox="0 0 2550 3200"
 xmlns:xlink="http://www.w3.org/1999/xlink">
 <defs>
  <style type="text/css">
   <![CDATA[
    .fil2 {fill:white}
    .fil0 {fill:#A1A1A1;fill-rule:nonzero}
    .fil1 {fill:#F76451;fill-rule:nonzero}
   ]]>
  </style>
 </defs>
 <g id="Слой_x0020_1">
  <metadata id="CorelCorpID_0Corel-Layer"/>
  <path class="fil0" d="M111 466l2304 0c102,0 100,200 0,200l-2310 0c-116,-10 -109,-208 7,-200z"/>
  <path class="fil0" d="M111 898l2304 0c102,0 100,200 0,200l-2310 0c-116,-10 -109,-208 7,-200z"/>
  <path class="fil0" d="M111 10l2304 0c102,0 100,200 0,200l-2310 0c-116,-10 -109,-208 7,-200z"/>
  <g id="_814768032">
   <path class="fil1" d="M1415 1078c2,180 4,312 5,396 38,-15 80,-21 121,-17 42,5 82,19 116,42 12,8 23,17 34,27 18,-15 38,-28 59,-37 45,-21 96,-28 147,-19 51,9 97,33 133,67 18,17 33,37 46,59 16,-6 33,-11 51,-13 42,-6 85,-1 126,15 40,16 75,42 101,75 26,33 44,72 51,115l1 4 0 5c0,150 1,299 2,449 1,149 1,297 2,446l0 0c6,123 -27,226 -101,310 -71,81 -177,141 -319,181l-8 2 -9 0c-47,-1 -106,1 -170,3 -247,7 -570,16 -722,-102l0 0c-1,-1 -286,-195 -857,-586 -49,-27 -84,-71 -101,-120 -18,-50 -17,-107 5,-160 23,-53 63,-92 112,-114 49,-22 105,-26 160,-9l2 1 3 1c42,18 306,127 479,188 31,11 58,20 81,27 21,-904 18,-1383 18,-1385l0 -7 1 -5c11,-55 37,-100 76,-132 38,-31 87,-49 144,-49 56,0 103,19 139,53 37,34 61,81 72,136l2 152zm-110 506c0,-1 -2,-215 -8,-644 -7,-27 -18,-50 -35,-65 -15,-14 -35,-22 -61,-22 -29,0 -53,8 -70,22 -17,14 -29,34 -34,59 0,63 2,562 -19,1445l0 2c0,5 -1,10 -3,15 -13,43 -55,52 -116,36 -30,-8 -70,-20 -114,-36 -174,-61 -434,-169 -484,-190 -25,-8 -52,-6 -74,5 -23,10 -42,29 -53,54 -11,25 -11,52 -3,76 8,24 26,45 50,58l3 2 2 2c572,392 858,587 859,588l3 3c118,94 420,86 651,80 61,-2 117,-3 165,-3 116,-34 202,-81 256,-143 53,-60 77,-136 72,-228l0 -3c0,-150 -1,-299 -2,-449 -1,-148 -1,-296 -2,-444 -4,-21 -13,-41 -27,-57 -14,-17 -32,-31 -54,-40 -21,-8 -44,-11 -66,-8 -22,3 -44,12 -62,27l-73 57 -19 -91c-6,-27 -20,-52 -39,-70 -19,-19 -44,-32 -71,-36 -28,-5 -56,-1 -80,10 -24,11 -45,29 -59,53l-53 87 -48 -90c-11,-20 -26,-37 -45,-49 -19,-13 -41,-21 -64,-23 -23,-2 -46,1 -67,9 -21,8 -40,22 -55,40l-100 118 -2 -155z"/>
   <path class="fil2" d="M1303 1320c-137,-19 -206,-29 -206,-29 1,-237 1,-355 1,-355 10,-49 53,-83 102,-82 50,1 91,38 98,87 3,253 5,379 5,379z"/>
  </g>
 </g>
</svg>
