<?xml version="1.0" encoding="UTF-8"?>
<!DOCTYPE svg PUBLIC "-//W3C//DTD SVG 1.1//EN" "http://www.w3.org/Graphics/SVG/1.1/DTD/svg11.dtd">
<!-- Creator: CorelDRAW X6 -->
<svg xmlns="http://www.w3.org/2000/svg" xml:space="preserve" width="94mm" height="68.5mm" version="1.1" style="shape-rendering:geometricPrecision; text-rendering:geometricPrecision; image-rendering:optimizeQuality; fill-rule:evenodd; clip-rule:evenodd"
viewBox="0 0 9400 6850"
 xmlns:xlink="http://www.w3.org/1999/xlink">
 <defs>
  <style type="text/css">
   <![CDATA[
    .str5 {stroke:black;stroke-width:10}
    .str1 {stroke:#FF6F5C;stroke-width:10}
    .str6 {stroke:#A1A1A1;stroke-width:50}
    .str2 {stroke:#F76451;stroke-width:50}
    .str3 {stroke:#FF6F5C;stroke-width:50}
    .str0 {stroke:#A1A1A1;stroke-width:75}
    .str4 {stroke:#A1A1A1;stroke-width:100}
    .str7 {stroke:#A1A1A1;stroke-width:100;stroke-dasharray:200.000000 300.000000}
    .fil1 {fill:none}
    .fil0 {fill:none;fill-rule:nonzero}
    .fil3 {fill:#F76451}
    .fil5 {fill:#FF6F5C}
    .fil2 {fill:#F76451;fill-rule:nonzero}
    .fil4 {fill:#FF6F5C;fill-rule:nonzero}
   ]]>
  </style>
 </defs>
 <g id="Слой_x0020_1">
  <metadata id="CorelCorpID_0Corel-Layer"/>
  <g id="_1079782944">
   <path class="fil0 str0" d="M2316 5143l553 -719 269 207 16 -1133 -1090 306 269 207 -553 719 537 413zm277 -360m411 -256m142 -463m-537 -413m-411 256m-142 463m-8 566"/>
   <g>
    <line class="fil1 str0" x1="3119" y1="3096" x2="3108" y2= "2854" />
    <line class="fil1 str0" x1="3311" y1="3133" x2="3405" y2= "2910" />
    <line class="fil1 str0" x1="3473" y1="3238" x2="3645" y2= "3068" />
    <line class="fil1 str0" x1="3561" y1="3407" x2="3787" y2= "3322" />
    <line class="fil1 str0" x1="2932" y1="3150" x2="2818" y2= "2937" />
    <line class="fil1 str0" x1="2780" y1="3270" x2="2593" y2= "3117" />
    <line class="fil1 str0" x1="2708" y1="3446" x2="2475" y2= "3382" />
    <line class="fil1 str0" x1="3356" y1="3995" x2="3470" y2= "4208" />
    <line class="fil1 str0" x1="3508" y1="3874" x2="3695" y2= "4028" />
    <line class="fil1 str0" x1="3576" y1="3751" x2="3810" y2= "3815" />
    <line class="fil1 str0" x1="3609" y1="3573" x2="3851" y2= "3575" />
   </g>
  </g>
  <path class="fil2 str1" d="M4426 3261l-1087 -420 0 0 0 0 -1 0c-59,-23 -65,-25 -65,-93l0 -1827c0,-41 7,-66 28,-80 21,-14 46,-12 83,-1l0 0 1950 604c13,4 23,7 31,9 36,11 54,16 67,35 12,18 12,35 11,68 0,9 -1,21 -1,41l0 1260 -69 0 0 -1260c0,-14 1,-30 1,-43 1,-18 2,-26 1,-27 -1,-1 -9,-2 -29,-8 -10,-3 -21,-6 -32,-10l-1950 -604 0 0c-16,-5 -22,-9 -23,-8 -1,1 2,7 2,23l0 1827c0,20 2,21 20,28l0 0 0 0 1 0 1088 420 -25 65z"/>
  <path class="fil2 str1" d="M3318 833l2079 -680c41,-13 66,-19 88,-20 24,-1 42,4 71,11l1 0 1923 588c87,27 85,88 83,164 0,8 0,16 0,32l0 1838 0 0c2,33 0,57 -11,79 -12,24 -33,40 -70,51l-930 331 -23 -65 930 -331 1 0c18,-6 27,-11 30,-17 4,-8 4,-24 3,-46l0 -2 0 -1838c0,-7 0,-21 1,-33 1,-47 2,-85 -34,-96l-1922 -588c-23,-6 -37,-9 -51,-9 -15,1 -35,6 -70,17l-2079 680 -21 -66z"/>
  <path class="fil2 str1" d="M4958 5058l1 -1221 -889 -321c-7,-2 -13,-5 -19,-7l0 9 0 1113 0 0c0,5 0,9 0,14 0,17 0,22 23,31l0 0 883 382zm70 -1245l-1 1257 0 0c0,11 0,15 0,19 1,21 1,33 -14,45l0 0c-19,16 -31,11 -56,-1l0 0c-2,-1 -5,-2 -11,-5l0 0 -899 -389 0 0c-64,-27 -64,-41 -65,-94l0 -14 0 -1 0 -1113 0 -19 0 0c0,-37 -1,-54 23,-66l0 0c19,-10 32,-4 58,6l0 0c8,3 18,7 30,12l912 329 23 8 0 24zm-990 -316c2,-3 4,-5 -1,-2l0 0c-6,3 -4,3 1,2z"/>
  <path class="fil2 str1" d="M4006 3427l1434 -467 10 -3 0 0c25,-8 37,-12 53,-12 15,0 25,4 44,10 7,2 14,5 20,7l974 314 101 33 -101 33 -1537 504 -21 -66 1435 -471 -872 -282c-10,-3 -16,-5 -21,-7 -13,-4 -20,-7 -23,-7 -4,0 -12,3 -30,9l0 0 -11 3 -1434 467 -21 -66z"/>
  <path class="fil2 str1" d="M6615 3292l3 1262c0,12 1,24 1,33l0 0c4,62 4,63 -72,86l-1547 468 -20 -66 1547 -468c24,-7 24,-7 23,-15l0 0c-1,-9 -1,-20 -1,-37l-3 -1262 69 0z"/>
  <line class="fil1" x1="5407" y1="1515" x2="7531" y2= "783" />
  <polygon class="fil2 str1" points="5396,1482 7520,751 7542,816 5418,1548 "/>
  <g id="_1079780864">
   <path class="fil3" d="M5799 4055c20,84 -44,217 -76,197 -38,-23 31,-164 76,-197zm-221 -14c33,59 6,207 -4,267 -5,28 -30,169 -21,193 9,23 31,29 56,20 18,-49 24,-203 38,-280 9,-48 25,-88 43,-125 17,-35 46,-88 93,-83 -5,7 -18,20 -25,28 -38,45 -78,113 -71,176 4,35 24,55 56,49 73,-13 169,-187 110,-272 86,-35 76,42 66,100 -7,40 -33,146 47,122 24,-37 47,-234 94,-231 14,30 -21,183 36,160 30,-12 54,-111 64,-142 6,-20 26,-93 49,-87 3,3 0,-3 3,5 7,14 1,66 -1,80 -3,27 -5,54 -7,80 -4,70 8,116 88,97 -18,-20 -24,-31 -27,-63 -6,-69 20,-159 5,-205 -19,-57 -75,-33 -102,2 -18,24 -35,72 -44,108 -9,-48 -25,-96 -78,-65 -39,23 -48,71 -59,91 -7,-48 -18,-85 -55,-96 -19,-6 -39,-3 -60,4 -38,14 -33,23 -54,18 -39,-9 -84,19 -106,40 -27,25 -41,51 -56,82 -6,-53 -24,-89 -80,-75z"/>
   <path class="fil3" d="M5474 4164c1,59 -38,168 -89,169 -46,1 -53,-113 -1,-186 10,-14 28,-38 53,-41 28,-4 36,33 36,59zm-124 -14c6,-44 42,-114 65,-142 28,-37 69,-84 134,-99 -10,-24 -46,-25 -73,-18 -75,21 -126,95 -156,154 -33,65 -78,235 7,304 79,64 187,-45 210,-153 12,-56 -1,-127 -60,-130 -29,-2 -59,14 -78,29 -29,22 -34,40 -48,55z"/>
  </g>
  <circle class="fil1 str2" cx="7641" cy="428" r="85"/>
  <circle class="fil1 str2" cx="8051" cy="908" r="162"/>
  <circle class="fil1 str2" cx="8021" cy="66" r="42"/>
  <circle class="fil1 str2" cx="2715" cy="2201" r="42"/>
  <circle class="fil1 str2" cx="2921" cy="1733" r="135"/>
  <polygon class="fil2 str3" points="4826,984 6098,543 6120,608 4848,1049 "/>
  <g id="_982246240">
   <path class="fil3" d="M4542 2153l85 -86c4,-5 8,-11 15,-9 33,11 94,24 109,45 23,33 -25,92 -77,89 -30,-2 -95,-27 -132,-39zm169 -169c4,-7 60,-62 72,-74 11,-12 12,-7 49,5 22,7 48,27 42,49l-3 11c-6,21 -45,36 -63,36 -21,0 -71,-19 -96,-28zm86 -181l-1 2c-44,-15 -89,-24 -134,-39 -3,6 -16,18 -21,23l58 24c22,8 38,15 61,22l-1 2c-13,-4 -17,-3 -31,-7 -11,-4 -23,-8 -34,-11 -14,-4 -19,-3 -33,-8 -11,-4 -23,-8 -34,-11 -5,6 -18,17 -21,23 45,15 86,36 133,51l-1 2c-12,-4 -24,-8 -36,-12 -15,-5 -20,-4 -35,-9 -27,-9 -48,-13 -73,-21 -7,8 -16,14 -21,23 38,12 80,34 126,49l-1 2c-23,-8 -44,-12 -69,-20 -14,-5 -19,-4 -33,-8 -12,-4 -24,-8 -36,-12 -7,7 -16,16 -23,23 38,16 78,33 120,47l-1 2c-16,-5 -29,-7 -48,-13l-100 -28c-17,-3 -34,-11 -51,-16l-48 -13c-19,-6 -31,-7 -50,-14 -35,-12 -65,-19 -101,-31l232 96c8,3 17,5 25,9 38,16 80,33 120,47l-1 2c-32,-10 -71,-21 -102,-28 -35,-8 -70,-22 -105,-32l-50 -14c-18,-6 -32,-8 -52,-14l-78 -23c-11,-3 -14,-2 -26,-6l-1 2c38,13 77,30 113,45 23,9 48,16 70,27l186 74 -50 -14c-19,-6 -30,-7 -50,-14l-102 -28c-35,-9 -66,-20 -101,-31l-50 -14c-18,-6 -32,-8 -52,-14l188 77c18,6 30,12 49,18 21,8 48,21 71,28 20,6 50,21 71,28l-1 2c-37,-12 -67,-20 -103,-31l-254 -72c-17,-3 -35,-10 -53,-16 2,4 1,4 6,6l61 23c12,4 12,6 23,10l72 28c23,10 50,17 72,28l48 19c34,11 62,25 97,37l-162 -44c-9,-1 -18,-5 -27,-8 -26,-9 -22,-4 -26,17 30,10 56,23 86,33 11,4 11,6 21,9l67 27 -89 -24c-14,-3 -31,-10 -45,-14l-46 -12c-11,39 -8,20 67,54 18,9 58,19 71,27l8 7c-13,-4 -26,-8 -38,-13 -16,-5 -25,-6 -39,-10 -29,-9 -50,-14 -78,-23 -11,38 -11,25 58,52 22,8 46,20 69,28l-1 2c-11,-4 -23,-7 -34,-11 -15,-5 -22,-5 -35,-9 -8,-2 -63,-23 -69,-17 -1,1 -3,11 -4,16 -4,22 5,9 38,26 11,6 23,8 34,13 10,5 21,9 34,13l-57 -13c-9,-3 -19,-6 -28,-9 -13,-4 -19,-4 -28,-7 -2,6 -6,13 2,16l342 112c105,34 241,1 276,-119 4,-12 5,-25 4,-35 -2,-24 -15,-47 -33,-62 -7,-6 -7,-4 -10,-12 37,8 118,-30 147,-64 67,-80 43,-167 -58,-199l-261 -85c-5,-2 -10,3 -13,7 -10,13 24,17 42,25l76 28z"/>
   <path class="fil3" d="M4164 2410c-14,-5 -25,-10 -33,-26 -20,-40 19,-85 48,-75 17,5 31,8 39,31 9,24 -1,53 -21,65 -8,5 -21,9 -34,5zm-30 -209l-62 211c-3,10 7,10 28,17 9,3 9,-7 12,-16 16,22 17,26 46,35 63,21 125,-63 94,-129 -15,-31 -41,-51 -75,-48 -11,1 -14,4 -24,6l21 -71c-25,-8 -37,-16 -41,-6z"/>
   <path class="fil3" d="M3861 2352l23 8c11,-11 21,-32 31,-47 6,-8 10,-17 15,-24l16 -23c0,0 1,-1 1,-1 -3,15 -2,93 -3,115l26 8 49 -76c9,-13 16,-25 25,-38 7,-10 21,-28 24,-38l-32 -10 -51 76c-5,8 -2,7 -10,10 4,-14 2,-37 3,-51 1,-17 1,-35 2,-53l-32 -10c-10,18 -47,75 -51,87l-4 -1c3,-15 -2,-79 0,-103l-34 -11 3 185z"/>
   <path class="fil3" d="M3771 2176l9 3c20,6 28,28 26,46l-81 -27c6,-17 29,-28 46,-23zm-91 23c-14,49 10,99 49,112l15 5c26,8 71,-12 81,-37l-43 -14c-8,14 -30,14 -44,6 -18,-11 -20,-22 -23,-41l118 38c4,-10 4,-5 9,-22 13,-43 -11,-94 -59,-110 -41,-14 -89,17 -103,62z"/>
   <path class="fil3" d="M5080 2603l15 5c15,5 25,29 22,45l-81 -27c4,-7 11,-15 18,-19 5,-3 19,-7 27,-4zm73 69l-5 16c-4,12 -7,8 -28,1l-92 -30c-4,19 14,44 40,45 15,0 21,-10 30,-9 6,0 33,10 40,13 -30,35 -51,46 -100,30 -34,-11 -61,-65 -47,-111 13,-44 62,-76 103,-62 49,16 72,65 60,108z"/>
   <path class="fil3" d="M4571 2543c-16,-5 -23,-8 -32,-27 -18,-39 18,-83 52,-72 16,5 25,7 35,28 19,40 -19,83 -54,71zm-66 -87l-5 16c-18,61 35,117 84,109 12,-2 13,-6 23,-9l-6 21c24,8 35,16 38,5l44 -152c3,-10 -9,-10 -32,-18 -7,-2 -7,2 -10,9 -26,-34 -56,-50 -97,-26 -16,9 -33,23 -39,44z"/>
   <path class="fil3" d="M4335 2466c-16,-5 -23,-8 -32,-27 -18,-39 18,-83 52,-72 16,5 25,7 35,28 19,40 -19,83 -54,71zm-66 -87l-5 16c-18,61 35,117 84,109 12,-2 13,-6 23,-9l-6 21c24,8 35,16 38,5l44 -152c3,-10 -9,-10 -32,-18 -7,-2 -7,2 -10,9 -26,-34 -56,-50 -97,-26 -16,9 -33,24 -39,44z"/>
   <path class="fil3" d="M4740 2467l3 -11 -36 -12 -49 168c48,16 35,26 61,-63 23,-80 57,-43 60,-36 7,15 0,38 -4,54 -4,14 -8,28 -12,41 -11,39 -17,32 22,45 5,2 7,0 8,-5l29 -99c11,-38 -4,-74 -43,-87 -15,-5 -28,1 -39,5z"/>
   <path class="fil3" d="M3592 2093l3 -12 -36 -12 -49 168c48,16 35,26 61,-63 5,-18 17,-57 40,-50 12,4 22,7 23,29 0,12 -3,25 -7,39 -4,14 -8,28 -12,41 -11,39 -17,32 22,45 5,2 7,1 8,-5l29 -99c11,-37 -4,-74 -43,-87 -15,-5 -28,1 -39,5z"/>
   <path class="fil3" d="M4827 2571c-14,47 8,101 51,115 22,7 42,11 63,0 13,-7 30,-14 36,-33l-43 -14c-24,40 -103,-12 -59,-72 4,-6 10,-11 16,-14 16,-7 24,-3 39,2 20,6 16,30 25,33 42,14 42,18 36,-11 -18,-88 -140,-91 -164,-6z"/>
   <path class="fil3" d="M4487 2317l-62 211c-3,10 9,10 32,18 5,2 7,0 8,-5l62 -211c3,-10 -9,-10 -32,-18 -5,-2 -7,0 -8,5z"/>
   <path class="fil3" d="M4290 1797c23,7 38,15 59,22l86 33c10,5 17,7 30,12l58 24 7 -25c-41,-13 -82,-26 -121,-35l-90 -27c-16,-5 -19,-9 -29,-4z"/>
   <path class="fil3" d="M4325 1758l-1 2c12,4 16,7 25,11l166 64c19,7 23,18 25,-14 -38,-13 -70,-20 -108,-33l-54 -15c-19,-6 -33,-8 -54,-15z"/>
   <path class="fil3" d="M4120 1968l-1 2c33,11 76,30 107,42l68 25c4,-8 7,-8 12,-16 -32,-10 -60,-18 -93,-28 -16,-5 -18,-3 -46,-12 -19,-6 -30,-7 -48,-13z"/>
   <path class="fil3" d="M4360 1724l186 76c9,-31 2,-22 -35,-32 -16,-4 -35,-13 -51,-16l-100 -28z"/>
   <path class="fil3" d="M4085 2002l-1 2c11,3 11,5 19,8 7,3 16,5 23,8 9,4 10,6 21,9 32,11 56,23 89,34 11,4 11,6 21,9 6,-5 12,-9 17,-17l-94 -26c-15,-3 -32,-11 -47,-15 -10,-3 -11,-1 -22,-5 -9,-3 -17,-6 -26,-8z"/>
   <path class="fil3" d="M4015 2072l107 45c7,3 16,5 23,8 9,4 10,6 21,9 8,3 16,5 24,8 5,-5 10,-8 14,-16 -16,-5 -32,-11 -46,-13 -17,-3 -32,-11 -49,-15l-93 -25z"/>
   <path class="fil3" d="M4051 2036l64 29c9,4 10,6 21,9 31,10 58,24 89,34 3,-5 3,-5 7,-9 12,-13 8,-6 -16,-14l-54 -15c-38,-12 -71,-21 -110,-33z"/>
   <path class="fil3" d="M4394 1690l-1 2c56,18 108,45 164,64l5 -18c-17,-5 -28,-7 -41,-11 -14,-4 -29,-10 -43,-14l-63 -18c-10,-3 -11,-1 -22,-5z"/>
   <path class="fil3" d="M3981 2106l168 58c14,5 14,7 20,-4 -18,-6 -29,-7 -46,-12l-48 -13c-15,-4 -32,-12 -47,-15 -15,-3 -30,-8 -48,-13z"/>
   <path class="fil3" d="M4426 1660c13,4 25,8 37,13l76 29c22,11 28,16 33,2l-146 -45z"/>
  </g>
  <path class="fil1 str4" d="M14134 35925c389,-188 777,-377 1166,-565"/>
  <path class="fil1 str4" d="M15547 35249c86,-42 172,-84 259,-125"/>
  <path class="fil1 str4" d="M16216 35889c388,-188 776,-376 1164,-565"/>
  <path class="fil1 str4" d="M14765 33582c281,-124 562,-248 844,-373"/>
  <path class="fil1 str4" d="M13958 33942c89,-35 178,-71 267,-106"/>
  <circle class="fil1 str2" transform="matrix(-1.65431 -0.308383 -0.308383 1.65431 14565.7 32730.3)" r="53"/>
  <circle class="fil1 str2" transform="matrix(-0.827157 -0.154191 -0.154191 0.827157 14702.9 31973.5)" r="53"/>
  <circle class="fil1 str2" transform="matrix(-2.13667 -0.398299 -0.398299 2.13667 15323.3 33018.7)" r="53"/>
  <circle class="fil1 str2" transform="matrix(0.813798 -0.213769 0.213769 0.813798 17247.7 34729.9)" r="53"/>
  <circle class="fil1 str2" transform="matrix(1.6276 -0.427539 0.427539 1.6276 16759.3 34972.8)" r="53"/>
  <path class="fil4 str1" d="M16780 33843l3188 -1711 -3733 1234 -17 1217 525 -699 36 -42zm-645 911l1 -47 18 -1352 -1217 -1084 -76 -67 101 -3 5120 -172 60 -2 112 -4 -1842 3264 -25 44 -38 -33 -1045 -918 -1147 454 -24 -1 1 -59 0 -18zm81 -32l1021 -404 -432 -379 -589 783zm3583 -2604l-4732 159 1137 1014 3595 -1173zm293 27l-3222 1742 1497 1315 1725 -3057z"/>
  <circle class="fil1 str2" transform="matrix(2.73182 -0.509242 0.509242 2.73182 14065.7 35180.3)" r="53"/>
  <circle class="fil1 str2" transform="matrix(2.77982 -0.51819 0.51819 2.77982 14592.2 33255.2)" r="53"/>
  <path class="fil1 str4" d="M14378 34621c389,-188 777,-377 1166,-565"/>
  <path class="fil2 str1" d="M3121 35321l489 543c39,43 50,40 108,23l0 0 0 0 1493 -425c29,-8 47,-17 53,-28 4,-7 -1,-19 -14,-36l-640 -823 -1640 468c-27,8 -50,13 -69,18 -88,23 -95,24 -95,141 -2,758 -4,1516 -6,2274l-2320 -489c-98,-21 -97,-49 -93,-124 1,-11 1,-25 1,-42l0 -2352 875 -230c23,19 50,35 80,45l-891 234 0 2303c0,16 -1,31 -2,45 -2,36 -3,49 42,59l2244 473 6 -2196c0,-167 10,-169 143,-203 19,-5 42,-11 67,-18l1536 -438 -1146 -233c7,-3 13,-6 20,-10 8,-4 16,-8 24,-12 39,0 69,0 108,-12l1141 226 667 857c31,40 37,75 20,105 -14,27 -46,46 -91,59l0 0 -1493 425c-89,25 -107,30 -173,-42l-489 -543 47 -43z"/>
  <polygon class="fil2 str1" points="945,34606 2429,34922 2416,34984 931,34668 "/>
  <path class="fil2 str1" d="M98 35063l-516 170 0 0 -34 11 0 0c-59,20 -87,29 -99,-1l0 0c-11,-26 8,-40 45,-68 13,-10 30,-23 44,-33l862 -672 39 50 -807 630 447 -147 20 61zm-591 155c4,10 5,7 6,0 -6,-6 -10,-11 -6,0l0 0z"/>
  <path class="fil1 str5" d="M2766 37438l1724 -448c164,-43 131,-17 131,-178l0 -1144"/>
  <path class="fil2 str1" d="M2758 37407l1724 -448c19,-5 32,-8 44,-11 41,-10 61,-15 65,-20 3,-3 2,-19 1,-48 -1,-19 -2,-43 -2,-68l0 -1144 64 0 0 1144c0,29 1,49 2,66 2,44 3,67 -13,88 -17,23 -44,30 -100,44 -14,3 -30,7 -43,11l-1724 448 -16 -62z"/>
  <path class="fil1 str0" d="M2095 33769c-378,108 -757,217 -972,285 -215,69 -266,97 -3,170 263,72 839,189 1121,250 282,61 269,68 514,-1 245,-70 749,-216 1002,-289 253,-73 255,-73 263,-39 8,34 21,101 28,135 7,34 7,34 103,31 97,-2 290,-7 387,-9 97,-2 97,-2 98,-76 1,-74 3,-223 3,-299 0,-76 -2,-81 -76,-107 -74,-26 -220,-73 -296,-98 -75,-25 -80,-27 -143,-14 -63,14 -184,43 -295,53 -110,10 -209,1 -278,-19 -69,-20 -107,-52 -128,-87 -21,-35 -26,-73 -17,-111 9,-38 31,-76 54,-115"/>
  <g id="_977964960">
   <path class="fil1 str6" d="M3006 33024c231,-169 342,-43 335,379 0,0 -289,154 -746,246 -457,93 -604,-7 -556,-139 20,-55 134,-127 343,-216 131,-69 276,-176 436,-322 120,-48 143,-1 199,130 57,131 145,76 174,-63"/>
   <path class="fil1 str6" d="M2012 33436c-235,27 -361,-5 -379,-98 -6,-87 66,-156 215,-209 102,-27 223,-99 363,-215 116,-140 206,-157 272,-54 36,147 95,183 177,107"/>
   <path class="fil1 str6" d="M2518 32904c130,-108 230,-99 275,50"/>
  </g>
  <path class="fil5 str3" d="M3735 32952c16,-5 29,9 34,20 7,16 2,35 -10,39 -32,12 -55,-48 -24,-59zm219 -16c2,37 0,80 0,117 0,15 3,43 -4,53 -9,13 -23,7 -36,4l-326 -75c-42,-10 -38,-20 -38,-72 0,-38 0,-77 0,-115 6,1 16,7 24,8 9,2 17,4 25,5l150 33c34,8 68,15 101,22 31,7 71,19 103,19zm-403 -697c0,-32 19,-26 40,-23 19,3 36,6 55,10l275 49c20,4 33,10 33,36l0 548c0,33 -22,24 -43,20 -106,-21 -220,-48 -328,-71 -21,-4 -33,-10 -33,-37l0 -532zm-42 763c4,24 16,47 32,62 18,17 38,19 62,25 46,11 92,22 139,33 48,11 93,22 140,33 18,4 54,16 72,13 58,-10 45,-87 45,-145l0 -695c0,-34 -8,-55 -23,-73 -18,-21 -29,-24 -58,-29 -48,-9 -97,-17 -145,-26 -49,-9 -98,-17 -146,-26 -42,-8 -101,-31 -117,37 -4,19 -2,74 -2,97l1 695zm170 -22c5,42 35,74 68,83 43,12 75,-28 70,-78 -5,-41 -35,-75 -68,-84 -43,-11 -76,26 -69,78z"/>
  <circle class="fil1 str2" cx="4332" cy="33326" r="125"/>
  <circle class="fil1 str2" cx="4199" cy="32889" r="62"/>
  <circle class="fil1 str2" cx="4660" cy="33080" r="31"/>
  <circle class="fil1 str2" cx="3305" cy="32571" r="31"/>
  <circle class="fil1 str2" cx="621" cy="33694" r="125"/>
  <circle class="fil1 str2" cx="488" cy="34130" r="62"/>
  <circle class="fil1 str2" cx="949" cy="33939" r="31"/>
  <path class="fil1 str6" d="M2335 33570c343,-17 678,-111 1004,-284"/>
  <path class="fil1 str6" d="M1873 33361c188,-5 371,-46 550,-121"/>
  <path class="fil1 str7" d="M47 4452c1113,1467 2847,2328 4688,2328 1841,0 3576,-862 4688,-2328"/>
  <path class="fil1 str7" d="M-2201 33213c1113,-1467 2847,-2328 4688,-2328 1841,0 3576,862 4688,2328"/>
  <path class="fil1 str7" d="M11812 36028c1113,1467 2847,2328 4688,2328 1841,0 3576,-862 4688,-2328"/>
 </g>
</svg>
