<?xml version="1.0" encoding="UTF-8"?>
<!DOCTYPE svg PUBLIC "-//W3C//DTD SVG 1.1//EN" "http://www.w3.org/Graphics/SVG/1.1/DTD/svg11.dtd">
<!-- Creator: CorelDRAW X6 -->
<svg xmlns="http://www.w3.org/2000/svg" xml:space="preserve" width="31.224mm" height="31.312mm" version="1.1" style="shape-rendering:geometricPrecision; text-rendering:geometricPrecision; image-rendering:optimizeQuality; fill-rule:evenodd; clip-rule:evenodd"
viewBox="0 0 3122 3131"
 xmlns:xlink="http://www.w3.org/1999/xlink">
 <defs>
  <style type="text/css">
   <![CDATA[
    .fil0 {fill:#F76451}
    .fil1 {fill:#FDFDFD}
   ]]>
  </style>
 </defs>
 <g id="Слой_x0020_1">
  <metadata id="CorelCorpID_0Corel-Layer"/>
  <circle class="fil0" cx="1561" cy="1566" r="1547"/>
  <path class="fil1" d="M1299 1161l-207 2 0 254 217 0 1 1106 390 0c10,-229 -15,-920 9,-1104l249 -2 1 -252 -256 -2c-21,-64 -5,-154 35,-187 61,-51 127,-33 213,-34l0 -283c-169,-34 -383,-10 -500,70 -57,38 -100,92 -128,167 -44,120 -15,195 -23,266z"/>
 </g>
</svg>
