<?xml version="1.0" encoding="UTF-8"?>
<!DOCTYPE svg PUBLIC "-//W3C//DTD SVG 1.1//EN" "http://www.w3.org/Graphics/SVG/1.1/DTD/svg11.dtd">
<!-- Creator: CorelDRAW X6 -->
<svg xmlns="http://www.w3.org/2000/svg" xml:space="preserve" width="31.224mm" height="31.312mm" version="1.1" style="shape-rendering:geometricPrecision; text-rendering:geometricPrecision; image-rendering:optimizeQuality; fill-rule:evenodd; clip-rule:evenodd"
viewBox="0 0 3122 3131"
 xmlns:xlink="http://www.w3.org/1999/xlink">
 <defs>
  <style type="text/css">
   <![CDATA[
    .fil0 {fill:#F76451}
    .fil1 {fill:white}
   ]]>
  </style>
 </defs>
 <g id="Слой_x0020_1">
  <metadata id="CorelCorpID_0Corel-Layer"/>
  <circle class="fil0" cx="1563" cy="1553" r="1547"/>
  <path class="fil1" d="M1565 1859c-242,0 -353,-306 -155,-459 77,-59 184,-67 270,-24 31,16 46,31 69,54 71,70 87,183 46,280 -34,82 -132,150 -230,150zm-383 -264c0,67 7,126 39,182 43,77 112,139 191,177 117,56 263,41 362,-34 57,-44 97,-82 133,-149 37,-68 45,-161 29,-240 -2,-11 -5,-23 -8,-36 -3,-14 -8,-25 -9,-38l376 0c0,16 4,14 4,33l0 495c0,90 -25,152 -66,201 -41,49 -123,77 -191,77l-961 0c-66,0 -150,-31 -184,-76 -5,-7 -7,-9 -13,-16 -23,-27 -52,-87 -52,-125l0 -593 376 0c-2,22 -25,72 -25,141zm90 -267l-430 0c-17,0 -10,-21 -12,-39 -6,-51 -4,-234 8,-273 30,-102 123,-173 243,-173l961 0c84,0 155,35 194,81 44,52 62,120 62,216l0 188 -430 0c-78,0 -83,-62 -215,-95 -121,-31 -217,-2 -313,62 -20,14 -36,33 -68,33zm-571 -224l0 907c0,103 41,202 108,268 18,18 28,28 51,43 59,39 136,68 214,68l979 0c84,0 153,-26 213,-69 9,-7 17,-13 26,-21 43,-39 76,-71 101,-134 17,-42 32,-100 32,-160l0 -900c0,-129 -43,-202 -102,-274 -58,-69 -168,-117 -263,-117l-990 0c-103,0 -196,47 -263,113 -60,60 -106,155 -106,274z"/>
  <path class="fil1" d="M1905 1093c0,115 46,101 152,101 97,0 80,-71 80,-159 0,-79 -62,-72 -123,-72 -96,0 -108,14 -108,130z"/>
 </g>
</svg>
