<?xml version="1.0" encoding="UTF-8"?>
<!DOCTYPE svg PUBLIC "-//W3C//DTD SVG 1.1//EN" "http://www.w3.org/Graphics/SVG/1.1/DTD/svg11.dtd">
<!-- Creator: CorelDRAW X6 -->
<svg xmlns="http://www.w3.org/2000/svg" xml:space="preserve" width="31.224mm" height="31.312mm" version="1.1" style="shape-rendering:geometricPrecision; text-rendering:geometricPrecision; image-rendering:optimizeQuality; fill-rule:evenodd; clip-rule:evenodd"
viewBox="0 0 3122 3131"
 xmlns:xlink="http://www.w3.org/1999/xlink">
 <defs>
  <style type="text/css">
   <![CDATA[
    .fil0 {fill:white}
   ]]>
  </style>
 </defs>
 <g id="Слой_x0020_1">
  <metadata id="CorelCorpID_0Corel-Layer"/>
  <g id="_820291600">
   <path class="fil0" d="M1171 1212c22,11 66,11 87,55 40,62 36,328 0,382 -73,120 -277,-309 -306,-379 -18,-40 -22,-66 -66,-80 -33,-15 -233,-7 -284,-7 -116,4 -62,73 -18,167 29,62 66,135 98,193 131,233 284,506 542,612 69,29 153,47 240,47 189,-4 171,22 189,-102 11,-84 47,-175 135,-102 76,69 135,171 222,211 47,18 76,18 131,15 182,0 426,33 226,-197 -84,-98 -160,-160 -215,-218 -29,-36 -29,-69 -4,-106 29,-51 84,-124 120,-171 51,-62 142,-186 167,-266 36,-109 -98,-80 -193,-80 -47,0 -98,0 -146,0 -55,0 -84,-7 -106,36 -15,25 -29,69 -44,102 -33,73 -164,317 -240,342 -80,25 -62,-182 -62,-222 7,-284 44,-313 -262,-309 -36,0 -102,4 -135,11 -29,7 -84,33 -80,66z"/>
   <path class="fil0" d="M1581 2988c-173,0 -344,-20 -498,-81 -86,-34 -157,-63 -237,-110 -60,-36 -150,-96 -203,-144l-47 -40c-15,-13 -29,-29 -43,-43 -244,-244 -415,-614 -415,-969 0,-155 4,-236 41,-385 17,-68 39,-133 65,-195 10,-23 19,-41 28,-62l60 -113c75,-125 130,-192 231,-293 50,-50 82,-78 139,-121 89,-67 170,-113 275,-162 80,-37 169,-65 263,-88 476,-116 990,45 1322,377 117,117 214,252 289,412 9,20 18,42 26,61 22,53 52,143 65,199 53,225 57,445 0,671 -60,238 -168,447 -334,627l-65 69c-249,240 -614,393 -962,393zm1529 -1482l0 123c-2,55 -7,110 -16,166 -8,53 -19,105 -32,156 -35,139 -52,160 -99,273 -11,26 -19,40 -32,62 -39,70 -59,106 -107,175 -58,83 -180,222 -269,291 -19,15 -33,28 -52,42l-82 59c-64,47 -138,82 -208,117 -77,39 -190,77 -277,99 -173,43 -247,45 -420,46l-8 0c-183,0 -436,-62 -604,-145 -42,-20 -85,-42 -123,-65 -20,-12 -38,-23 -58,-36 -152,-95 -325,-262 -428,-411 -14,-20 -26,-35 -38,-56 -44,-70 -61,-102 -99,-179 -21,-42 -39,-88 -55,-133 -34,-94 -62,-196 -76,-296 -11,-81 -14,-125 -15,-178l0 -101 0 -6c0,-104 22,-227 47,-325 46,-183 127,-357 235,-510 132,-186 290,-329 485,-447 10,-6 19,-12 29,-18 120,-64 222,-111 364,-146 184,-46 244,-47 425,-47l9 0c236,0 522,86 728,208 72,42 80,50 142,93 52,35 130,105 175,150 85,85 145,157 211,259 89,137 161,295 200,454 27,108 43,216 47,325z"/>
  </g>
 </g>
</svg>
