<?xml version="1.0" encoding="UTF-8"?>
<!DOCTYPE svg PUBLIC "-//W3C//DTD SVG 1.1//EN" "http://www.w3.org/Graphics/SVG/1.1/DTD/svg11.dtd">
<!-- Creator: CorelDRAW X6 -->
<svg xmlns="http://www.w3.org/2000/svg" xml:space="preserve" width="31.224mm" height="31.312mm" version="1.1" style="shape-rendering:geometricPrecision; text-rendering:geometricPrecision; image-rendering:optimizeQuality; fill-rule:evenodd; clip-rule:evenodd"
viewBox="0 0 3122 3131"
 xmlns:xlink="http://www.w3.org/1999/xlink">
 <defs>
  <style type="text/css">
   <![CDATA[
    .fil0 {fill:#FDFDFD}
    .fil1 {fill:white}
   ]]>
  </style>
 </defs>
 <g id="Слой_x0020_1">
  <metadata id="CorelCorpID_0Corel-Layer"/>
  <g id="_1147608752">
   <path class="fil0" d="M1302 1161l-207 2 0 254 217 0 1 1106 390 0c10,-229 -15,-920 9,-1104l249 -2 1 -252 -256 -2c-21,-64 -5,-154 35,-187 61,-51 127,-33 213,-34l0 -283c-169,-34 -383,-10 -500,70 -57,38 -100,92 -128,167 -44,120 -15,195 -23,266z"/>
   <path class="fil1" d="M1581 2988c-173,0 -344,-20 -498,-81 -86,-34 -157,-63 -237,-110 -60,-36 -150,-96 -203,-144l-47 -40c-15,-13 -29,-29 -43,-43 -244,-244 -415,-614 -415,-969 0,-155 4,-236 41,-385 17,-68 39,-133 65,-195 10,-23 19,-41 28,-62l60 -113c75,-125 130,-192 231,-293 50,-50 82,-78 139,-121 89,-67 170,-113 275,-162 80,-37 169,-65 263,-88 476,-116 990,45 1322,377 117,117 214,252 289,412 9,20 18,42 26,61 22,53 52,143 65,199 53,225 57,445 0,671 -60,238 -168,447 -334,627l-65 69c-249,240 -614,393 -962,393zm1529 -1482l0 123c-2,55 -7,110 -16,166 -8,53 -19,105 -32,156 -35,139 -52,160 -99,273 -11,26 -19,40 -32,62 -39,70 -59,106 -107,175 -58,83 -180,222 -269,291 -19,15 -33,28 -52,42l-82 59c-64,47 -138,82 -208,117 -77,39 -190,77 -277,99 -173,43 -247,45 -420,46l-8 0c-183,0 -436,-62 -604,-145 -42,-20 -85,-42 -123,-65 -20,-12 -38,-23 -58,-36 -152,-95 -325,-262 -428,-411 -14,-20 -26,-35 -38,-56 -44,-70 -61,-102 -99,-179 -21,-42 -39,-88 -55,-133 -34,-94 -62,-196 -76,-296 -11,-81 -14,-125 -15,-178l0 -101 0 -6c0,-104 22,-227 47,-325 46,-183 127,-357 235,-510 132,-186 290,-329 485,-447 10,-6 19,-12 29,-18 120,-64 222,-111 364,-146 184,-46 244,-47 425,-47l9 0c236,0 522,86 728,208 72,42 80,50 142,93 52,35 130,105 175,150 85,85 145,157 211,259 89,137 161,295 200,454 27,108 43,216 47,325z"/>
  </g>
 </g>
</svg>
