<?xml version="1.0" encoding="UTF-8"?>
<!DOCTYPE svg PUBLIC "-//W3C//DTD SVG 1.1//EN" "http://www.w3.org/Graphics/SVG/1.1/DTD/svg11.dtd">
<!-- Creator: CorelDRAW X6 -->
<svg xmlns="http://www.w3.org/2000/svg" xml:space="preserve" width="31.224mm" height="31.312mm" version="1.1" style="shape-rendering:geometricPrecision; text-rendering:geometricPrecision; image-rendering:optimizeQuality; fill-rule:evenodd; clip-rule:evenodd"
viewBox="0 0 3122 3131"
 xmlns:xlink="http://www.w3.org/1999/xlink">
 <defs>
  <style type="text/css">
   <![CDATA[
    .fil0 {fill:white}
   ]]>
  </style>
 </defs>
 <g id="Слой_x0020_1">
  <metadata id="CorelCorpID_0Corel-Layer"/>
  <g id="_197045328">
   <path class="fil0" d="M1581 2988c-173,0 -344,-20 -498,-81 -86,-34 -157,-63 -237,-110 -60,-36 -150,-96 -203,-144l-47 -40c-15,-13 -29,-29 -43,-43 -244,-244 -415,-614 -415,-969 0,-155 4,-236 41,-385 17,-68 39,-133 65,-195 10,-23 19,-41 28,-62l60 -113c75,-125 130,-192 231,-293 50,-50 82,-78 139,-121 89,-67 170,-113 275,-162 80,-37 169,-65 263,-88 476,-116 990,45 1322,377 117,117 214,252 289,412 9,20 18,42 26,61 22,53 52,143 65,199 53,225 57,445 0,671 -60,238 -168,447 -334,627l-65 69c-249,240 -614,393 -962,393zm1529 -1482l0 123c-2,55 -7,110 -16,166 -8,53 -19,105 -32,156 -35,139 -52,160 -99,273 -11,26 -19,40 -32,62 -39,70 -59,106 -107,175 -58,83 -180,222 -269,291 -19,15 -33,28 -52,42l-82 59c-64,47 -138,82 -208,117 -77,39 -190,77 -277,99 -173,43 -247,45 -420,46l-8 0c-183,0 -436,-62 -604,-145 -42,-20 -85,-42 -123,-65 -20,-12 -38,-23 -58,-36 -152,-95 -325,-262 -428,-411 -14,-20 -26,-35 -38,-56 -44,-70 -61,-102 -99,-179 -21,-42 -39,-88 -55,-133 -34,-94 -62,-196 -76,-296 -11,-81 -14,-125 -15,-178l0 -101 0 -6c0,-104 22,-227 47,-325 46,-183 127,-357 235,-510 132,-186 290,-329 485,-447 10,-6 19,-12 29,-18 120,-64 222,-111 364,-146 184,-46 244,-47 425,-47l9 0c236,0 522,86 728,208 72,42 80,50 142,93 52,35 130,105 175,150 85,85 145,157 211,259 89,137 161,295 200,454 27,108 43,216 47,325z"/>
   <path class="fil0" d="M1563 1871c-242,0 -353,-306 -155,-459 77,-59 184,-67 270,-24 31,16 46,31 69,54 71,70 87,183 46,280 -34,82 -132,150 -230,150zm-383 -264c0,67 7,126 39,182 43,77 112,139 191,177 117,56 263,41 362,-34 58,-44 97,-82 133,-149 37,-68 45,-161 29,-240 -2,-11 -5,-23 -8,-36 -3,-14 -8,-25 -9,-38l376 0c0,16 4,14 4,33l0 495c0,90 -25,152 -66,201 -41,49 -123,77 -191,77l-961 0c-66,0 -150,-31 -184,-76 -5,-7 -7,-9 -13,-16 -23,-27 -52,-87 -52,-125l0 -593 376 0c-2,22 -25,72 -25,141zm90 -267l-430 0c-17,0 -10,-21 -12,-39 -6,-51 -4,-234 8,-273 30,-102 123,-173 243,-173l961 0c84,0 155,35 194,81 44,52 62,120 62,216l0 188 -430 0c-78,0 -83,-62 -215,-95 -121,-31 -217,-2 -313,62 -20,14 -36,33 -68,33zm-571 -224l0 907c0,103 41,202 108,268 18,18 28,28 51,43 59,40 136,68 214,68l979 0c84,0 153,-26 213,-69 9,-7 17,-13 26,-21 43,-39 76,-71 101,-134 17,-42 32,-100 32,-160l0 -900c0,-129 -43,-203 -102,-274 -58,-69 -168,-117 -263,-117l-990 0c-103,0 -196,47 -263,113 -60,60 -106,155 -106,274z"/>
  </g>
  <path class="fil0" d="M1903 1105c0,115 46,101 152,101 97,0 80,-71 80,-159 0,-79 -62,-72 -123,-72 -96,0 -108,14 -108,130z"/>
 </g>
</svg>
